<svg width="157" height="110" viewBox="0 0 157 110" fill="none" xmlns="http://www.w3.org/2000/svg">
<path d="M35.6615 77.7537C35.6615 77.7537 40.9614 71.7849 35.9873 67.9918C35.9873 67.9918 32.3538 65.8697 29.3894 66.0429C29.3894 66.0429 33.5892 72.8375 32.231 73.5113C30.8729 74.1874 28.1165 65.6151 28.1165 65.6151C28.1165 65.6151 19.8497 64.8427 17.1885 66.075C17.1885 66.075 24.2575 71.6586 22.769 71.9923C21.278 72.3239 13.6453 66.8431 13.6453 66.8431C13.6453 66.8431 5.94731 68.1074 6.35826 72.6385C6.76672 77.1697 9.4179 78.5686 10.5856 78.4489C11.7508 78.329 18.5692 75.8176 18.7196 76.7375C18.8674 77.6594 14.7603 80.6716 11.8887 80.8128C11.8887 80.8128 17.3163 86.5889 20.9222 84.9224C24.5256 83.2538 24.8338 80.6118 27.0815 79.6213C29.3318 78.6308 31.2488 78.633 30.3216 79.6448C29.3945 80.6547 25.3275 81.6365 24.042 83.8313C22.754 86.0264 21.6013 87.5069 25.33 86.9635C29.0637 86.4223 35.1303 83.7887 35.3959 80.77C35.6616 77.7537 35.6615 77.7537 35.6615 77.7537Z" fill="#599DAD"/>
<path d="M10.1396 72.7604C10.1396 72.7604 31.0452 71.9837 35.6611 77.7535C35.6611 77.7535 36.6819 80.7037 39.8242 83.3927L40.3146 84.6784C40.3146 84.6784 36.6894 80.9947 35.3959 80.7699C35.3959 80.7699 37.4225 73.6226 10.1396 72.7604Z" fill="#599DAD"/>
<path d="M39.8255 83.3928C39.8255 83.3928 44.3107 86.5931 44.6217 92.3158L43.8076 92.3865C43.8076 92.3865 42.374 86.4691 39.7851 84.1566C37.1936 81.8418 39.8255 83.3928 39.8255 83.3928Z" fill="#599DAD"/>
<path d="M54.1979 70.2467C54.1979 70.2467 45.7627 65.6877 49.7006 59.503C49.7006 59.503 52.8481 55.7034 56.2211 54.728C56.2211 54.728 54.4233 63.9527 56.2211 64.1689C58.0217 64.387 57.4595 53.7504 57.4595 53.7504C57.4595 53.7504 66.3428 49.6277 69.8298 49.953C69.8298 49.953 64.3196 58.9596 66.1174 58.7434C67.918 58.5253 74.1017 49.4097 74.1017 49.4097C74.1017 49.4097 83.2104 47.7816 84.6715 52.9908C86.1353 58.2001 83.7726 60.8058 82.4256 61.1311C81.0731 61.456 72.4152 61.347 72.6407 62.4318C72.8661 63.5184 78.7131 65.2534 81.9748 64.2779C81.9748 64.2779 78.3764 72.8503 73.6537 72.4157C68.9282 71.9836 67.4671 69.162 64.545 68.9436C61.6201 68.7277 59.4828 69.4872 60.9466 70.2467C62.4077 71.006 67.3558 70.4946 69.7185 72.4329C72.0785 74.3712 73.9904 75.565 69.6044 76.4315C65.2185 77.3 57.3454 76.7586 55.773 73.5027C54.1979 70.2467 54.1979 70.2467 54.1979 70.2467Z" fill="#6BB7BF"/>
<path d="M40.7778 63.9615C40.7778 63.9615 51.8953 57.9524 46.7083 49.7971C46.7083 49.7971 42.5582 44.7914 38.1122 43.5034C38.1122 43.5034 40.4819 55.6633 38.1122 55.9498C35.74 56.2366 36.481 42.2155 36.481 42.2155C36.481 42.2155 24.769 36.7794 20.1738 37.2095C20.1738 37.2095 27.4372 49.0828 25.0649 48.796C22.6927 48.5114 14.5417 36.4951 14.5417 36.4951C14.5417 36.4951 2.5339 34.3493 0.609358 41.2143C-1.32033 48.0814 1.79289 51.5151 3.57078 51.9452C5.34866 52.373 16.7647 52.2298 16.4688 53.6607C16.1729 55.0919 8.46448 57.381 4.16514 56.0931C4.16514 56.0931 8.90702 67.3931 15.1335 66.822C21.3599 66.2484 23.2871 62.5306 27.1413 62.2438C30.9955 61.957 33.8103 62.9604 31.8857 63.9615C29.9586 64.9629 23.4363 64.2891 20.3231 66.8433C17.2098 69.3976 14.6883 70.9701 20.4697 72.1145C26.251 73.2592 36.6276 72.5446 38.704 68.2532C40.7777 63.9615 40.7778 63.9615 40.7778 63.9615Z" fill="#86D1CD"/>
<path d="M6.09561 43.3593C6.09561 43.3593 37.2223 53.0867 40.7811 63.961C40.7811 63.961 40.6315 68.8238 43.7467 74.4033V76.5488C43.7467 76.5488 40.4845 69.2538 38.7051 68.2526C38.7051 68.2526 45.6731 58.8096 6.09561 43.3593Z" fill="#6BB7BF"/>
<path d="M43.7473 74.4032C43.7473 74.4032 48.5458 81.4396 45.8096 90.0034L44.5743 89.6824C44.5743 89.6824 45.7714 80.2501 43.2598 75.505C40.7483 70.7621 43.7473 74.4032 43.7473 74.4032Z" fill="#6BB7BF"/>
<path d="M41.3765 108.575C53.4028 108.575 63.1544 99.1637 63.1544 87.5558H19.5985C19.5985 99.1637 29.3475 108.575 41.3765 108.575Z" fill="#EE9849"/>
<path d="M46.7319 108.412C45.8475 108.52 44.9428 108.575 44.028 108.575C32.0003 108.575 22.2496 99.1642 22.2496 87.5562H27.6599C27.6599 98.2805 35.9799 107.127 46.7319 108.412Z" fill="#F3B175"/>
<path d="M63.4507 109.643H19.2938C19.2938 108.211 20.4993 107.05 21.9825 107.05H60.7646C62.2504 107.05 63.4507 108.211 63.4507 109.643Z" fill="#EE9849"/>
<path d="M63.6458 88.2025H18.8817V87.5561H63.6458V88.2025Z" fill="#EE9849"/>
<path d="M155.269 10.8356H98.3794C97.4269 10.8356 96.645 10.0848 96.645 9.16498V1.67094C96.645 0.751148 97.4269 -2.76566e-05 98.3794 -2.76566e-05H155.269C156.221 -2.76566e-05 157 0.751148 157 1.67094V9.16498C157 10.0848 156.221 10.8356 155.269 10.8356Z" fill="#EE9849"/>
<path d="M111.273 10.8354L110.557 17.1764L100.179 108.966C100.15 109.287 99.9151 109.529 99.636 109.529C99.1044 109.529 98.6873 108.996 98.7431 108.384L106.976 14.3869L107.287 10.8354H111.273Z" fill="#EFCBAB"/>
<path d="M111.273 10.8354L110.557 17.1764C110.066 14.6499 106.976 14.3869 106.976 14.3869L107.287 10.8354H111.273Z" fill="#CCA07F"/>
<path d="M154.017 109.529C153.738 109.529 153.501 109.287 153.472 108.966L143.093 17.1764L142.644 13.2208L142.378 10.8353H146.363L146.673 14.3866L146.92 17.1721L154.908 108.384C154.962 108.996 154.549 109.529 154.017 109.529Z" fill="#EFCBAB"/>
<path d="M146.919 17.1722C145.903 14.1516 142.646 13.223 142.646 13.223C142.646 13.223 142.646 13.223 142.646 13.2208L142.378 10.8355H146.363L146.673 14.3867L146.919 17.1722Z" fill="#CCA07F"/>
<path d="M103.384 109.236H45.3636L64.4344 29.5208H119.655L122.196 30.5988L103.384 109.236Z" fill="#CCA07F"/>
<path d="M100.589 109.236H42.5645L61.6379 29.5207H119.656L100.589 109.236Z" fill="#E3F0FF"/>
<path d="M104.079 40.7282H77.3006C76.7121 40.7282 76.115 41.1949 75.9787 41.7659C75.8425 42.3371 76.2135 42.8035 76.8049 42.8035H103.583C104.174 42.8035 104.768 42.3371 104.908 41.7659C105.044 41.1949 104.673 40.7282 104.079 40.7282Z" fill="#CBE2F7"/>
<path d="M103.502 46.2586H75.2309C75.0517 46.2586 74.8695 46.3998 74.8261 46.5753C74.7857 46.7485 74.8984 46.892 75.0777 46.892H103.349C103.531 46.892 103.713 46.7485 103.754 46.5753C103.797 46.3998 103.682 46.2586 103.502 46.2586Z" fill="#CBE2F7"/>
<path d="M103.152 47.7199H74.8814C74.6994 47.7199 74.5173 47.8632 74.4769 48.0366C74.4364 48.212 74.5491 48.3531 74.7282 48.3531H103.002C103.181 48.3531 103.363 48.212 103.403 48.0366C103.447 47.8632 103.334 47.7199 103.152 47.7199Z" fill="#CBE2F7"/>
<path d="M65.0078 42.8037H72.2401C72.8329 42.8037 73.4284 42.3374 73.5637 41.7662C73.7018 41.1952 73.3282 40.7286 72.7382 40.7286H65.5032C64.9131 40.7286 64.3149 41.1952 64.1796 41.7662C64.0443 42.3374 64.4151 42.8037 65.0078 42.8037Z" fill="#CBE2F7"/>
<path d="M99.667 56.8182H72.8921C72.3005 56.8182 71.7032 57.2866 71.5682 57.8559C71.4303 58.4271 71.8037 58.8955 72.3953 58.8955H99.1702C99.7618 58.8955 100.359 58.4271 100.494 57.8559C100.632 57.2866 100.259 56.8182 99.667 56.8182Z" fill="#CBE2F7"/>
<path d="M99.0904 62.3486H70.8201C70.6397 62.3486 70.4592 62.4918 70.4162 62.6673C70.3733 62.8406 70.4879 62.9838 70.6683 62.9838H98.9386C99.1191 62.9838 99.3024 62.8406 99.3425 62.6673C99.3854 62.4918 99.2737 62.3486 99.0904 62.3486Z" fill="#CBE2F7"/>
<path d="M98.743 63.8097H70.471C70.2907 63.8097 70.1075 63.9531 70.0675 64.1285C70.0245 64.3017 70.1362 64.4453 70.3193 64.4453H98.5885C98.7716 64.4453 98.9519 64.3017 98.9949 64.1285C99.0349 63.9531 98.9205 63.8097 98.743 63.8097Z" fill="#CBE2F7"/>
<path d="M60.598 58.8954H67.8331C68.4253 58.8954 69.0175 58.4271 69.1569 57.8559C69.2935 57.2867 68.921 56.8184 68.3288 56.8184H61.0938C60.5016 56.8184 59.9067 57.2867 59.77 57.8559C59.6334 58.4271 60.0058 58.8954 60.598 58.8954Z" fill="#CBE2F7"/>
<path d="M96.1564 72.9099H69.38C68.7871 72.9099 68.1914 73.3765 68.0546 73.9475C67.9178 74.5189 68.2912 74.9851 68.8812 74.9851H95.6604C96.2505 74.9851 96.8462 74.5189 96.983 73.9475C97.1198 73.3765 96.7464 72.9099 96.1564 72.9099Z" fill="#CBE2F7"/>
<path d="M95.5776 78.4403H67.3067C67.1248 78.4403 66.9457 78.5835 66.9031 78.7569C66.8633 78.9325 66.9741 79.0735 67.1561 79.0735H95.4269C95.606 79.0735 95.788 78.9325 95.8306 78.7569C95.8733 78.5835 95.7595 78.4403 95.5776 78.4403Z" fill="#CBE2F7"/>
<path d="M95.2272 79.9014H66.9579C66.779 79.9014 66.5972 80.0448 66.5545 80.218C66.5119 80.3935 66.6255 80.5347 66.8073 80.5347H95.0767C95.2557 80.5347 95.4375 80.3935 95.4801 80.218C95.5227 80.0448 95.409 79.9014 95.2272 79.9014Z" fill="#CBE2F7"/>
<path d="M57.0831 74.9854H64.3157C64.9085 74.9854 65.5039 74.5191 65.6421 73.9478C65.7777 73.3765 65.4056 72.9101 64.8155 72.9101H57.5801C56.9874 72.9101 56.392 73.3765 56.2564 73.9478C56.1182 74.5191 56.493 74.9854 57.0831 74.9854Z" fill="#CBE2F7"/>
<path d="M92.0553 89.6567H65.2779C64.6846 89.6567 64.0913 90.1229 63.9557 90.6941C63.8173 91.2653 64.1902 91.7338 64.7807 91.7338H91.558C92.1485 91.7338 92.7446 91.2653 92.8831 90.6941C93.0187 90.1229 92.6457 89.6567 92.0553 89.6567Z" fill="#CBE2F7"/>
<path d="M91.4791 95.187H63.2077C63.0273 95.187 62.8442 95.3303 62.8019 95.5035C62.7625 95.6788 62.8752 95.8221 63.0555 95.8221H91.3269C91.5072 95.8221 91.6904 95.6788 91.7326 95.5035C91.7721 95.3303 91.6594 95.187 91.4791 95.187Z" fill="#CBE2F7"/>
<path d="M91.1297 96.648H62.8599C62.6769 96.648 62.4967 96.7912 62.4545 96.9645C62.4151 97.1398 62.5277 97.2833 62.7079 97.2833H90.9776C91.1606 97.2833 91.3408 97.1398 91.383 96.9645C91.4253 96.7912 91.3098 96.648 91.1297 96.648Z" fill="#CBE2F7"/>
<path d="M60.7166 89.6568H53.4839C52.8915 89.6568 52.2938 90.123 52.1569 90.6942C52.0226 91.2655 52.3938 91.734 52.9862 91.734H60.2189C60.8114 91.734 61.4064 91.2655 61.5433 90.6942C61.6802 90.123 61.309 89.6568 60.7166 89.6568Z" fill="#CBE2F7"/>
<path d="M99.6409 35.3997H77.156C75.6164 35.3997 74.4783 34.0179 74.822 32.5716L75.6684 29.031H103.353L102.322 33.3396C102.033 34.5461 100.921 35.3997 99.6409 35.3997Z" fill="#EE9849"/>
<path d="M103.352 29.031L105.257 29.5211H103.236L103.352 29.031Z" fill="#ED7D2B"/>
<path d="M116.628 107.383C116.628 107.892 116.414 108.357 116.064 108.693C115.811 108.936 115.488 109.112 115.128 109.191C114.992 109.221 114.849 109.236 114.707 109.236H60.61C59.5557 109.236 58.6914 108.402 58.6914 107.383C58.6914 106.874 58.9052 106.41 59.2527 106.072C59.6032 105.736 60.0814 105.528 60.61 105.528H114.707C114.849 105.528 114.992 105.546 115.128 105.575C115.987 105.762 116.628 106.502 116.628 107.383Z" fill="#EE9849"/>
<path d="M115.127 105.528L122.193 107.037L115.127 109.236V105.528Z" fill="#739AF0"/>
<path d="M72.5311 105.528V109.236H60.6127C59.5572 109.236 58.6906 108.401 58.6906 107.383C58.6906 106.874 58.9066 106.41 59.2549 106.072C59.6031 105.736 60.0836 105.528 60.6127 105.528H72.5311Z" fill="#739AF0"/>
</svg>
