<svg width="485" height="297" viewBox="0 0 485 297" fill="none" xmlns="http://www.w3.org/2000/svg">
<path d="M29.7423 296.851C29.7423 296.851 -29.8456 226.125 19.6649 149.554C63.5941 81.6149 111.695 74.586 149.272 102.156C165.277 113.899 214.535 115.276 253.809 46.1461C307.367 -48.1279 493.02 9.04895 459.168 154.093C442.789 224.285 509.023 226.836 475.274 297L29.7423 296.851Z" fill="#F0F9FF"/>
<path d="M117.521 109.252C117.472 108.953 116.836 105.742 112.353 106.289C112.353 106.289 114.585 106.227 115.104 107.235C115.104 107.235 113.437 106.155 112.277 106.774C111.116 107.396 110.711 109.87 110.805 110.648C110.9 111.426 111.904 113.82 112.704 113.908C113.007 113.941 113.341 113.867 113.639 113.76C113.48 114.147 113.33 114.573 113.195 115.04C111.945 119.375 114.299 123.034 115.749 122.356C116.679 121.92 117.191 123.702 117.191 123.702L125.478 113.773C125.478 113.773 120.993 106.422 117.521 109.252Z" fill="#2C3A64"/>
<path d="M128.316 228.844L126.301 229.675C126.301 229.675 117.547 216.228 116.47 204.395C116.277 202.284 116.341 200.236 116.758 198.346C116.758 198.346 116.672 197.804 116.522 196.848C116.453 196.401 116.368 195.863 116.27 195.248C115.986 193.442 115.594 190.971 115.147 188.157C114.117 181.681 112.782 173.404 111.746 167.318L112.289 167.125L118.164 165.026L119.378 160.754L123.753 159.478C123.753 159.478 124.731 161.596 125.605 171.599C125.766 172.912 125.912 174.359 126.023 175.928C126.363 180.717 126.388 186.66 125.606 193.451C125.405 195.189 125.152 196.985 124.838 198.83C124.607 200.181 124.573 202.024 124.67 204.141C125.111 213.812 128.316 228.844 128.316 228.844Z" fill="#2B478B"/>
<path d="M126.023 175.928L116.522 196.849C116.453 196.401 116.368 195.863 116.27 195.248C115.986 193.442 115.594 190.971 115.147 188.157C114.117 181.681 112.782 173.404 111.746 167.318L112.289 167.125L118.164 165.026L119.378 160.754L123.753 159.478C123.753 159.478 124.731 161.596 125.605 171.599C125.766 172.912 125.912 174.359 126.023 175.928Z" fill="#233862"/>
<path d="M121.843 162.162L121.623 160.073C117.939 161.158 108.094 157.044 108.094 157.044C108.094 157.044 104.525 160.52 104.993 168.851C105.222 172.917 105.64 190.195 106.076 195.308C106.234 197.161 106.372 198.481 106.429 199.008C106.43 199.01 106.43 199.012 106.43 199.012C106.447 199.172 106.396 199.325 106.323 199.466C105.68 200.673 105.148 201.93 104.712 203.218C100.429 215.86 105.372 231.43 105.372 231.43L106.654 230.857C106.654 230.857 109.467 213.53 111.753 205.876C112.141 204.577 112.513 203.556 112.854 202.947C113.847 201.17 114.769 198.267 115.607 194.816C117.189 188.288 118.462 179.796 119.31 173.242C119.426 173.248 121.843 162.162 121.843 162.162Z" fill="#2B478B"/>
<path d="M123.044 145.007C123.074 145.117 123.102 145.225 123.146 145.337C124.585 149.83 127.149 154.548 128.898 156.27C130.046 157.408 133.201 158.588 135.885 159.433C137.666 160.011 139.136 160.318 139.787 160.5L140.833 158.739C140.833 158.739 139.439 157.774 137.74 156.507C135.379 154.731 132.428 152.391 131.862 151.386C130.554 149.048 129.687 141.904 128.565 137.081C128.509 136.821 128.452 136.569 128.394 136.321C128.351 136.139 128.308 135.961 128.264 135.783C128.255 135.748 128.248 135.695 128.224 135.656C128.163 135.455 128.116 135.273 128.065 135.109C128.067 135.093 128.054 135.074 128.043 135.054C127.817 134.253 127.286 133.133 127.286 133.133C126.958 132.572 126.601 132.292 126.214 132.388C126.214 132.388 125.688 132.564 125.011 133.08C124.869 133.188 124.72 133.311 124.568 133.449C124.466 133.514 124.389 133.602 124.312 133.692C123.777 134.22 123.225 134.951 122.802 135.93C122.48 136.673 122.228 137.548 122.103 138.606C121.885 140.329 122.301 142.628 123.044 145.007Z" fill="#FFB27D"/>
<path d="M125.042 136.809C123.974 137.579 122.644 138.203 120.985 138.572C114.766 139.962 112.546 134.102 111.757 130.105C112.614 129.597 113.409 129.503 113.869 129.456C114.317 129.413 114.788 129.388 115.177 129.38C115.886 128.813 116.981 126.437 117.305 122.702L117.593 122.797L122.425 124.425C122.425 124.425 122.158 126.134 122.008 127.752C121.891 129.017 121.847 130.228 122.056 130.531C122.434 130.635 122.661 130.701 122.661 130.701C122.661 130.701 122.661 130.703 122.663 130.707C122.725 130.827 124.072 133.446 125.042 136.809Z" fill="#FFB27D"/>
<path d="M122.425 124.427C122.425 124.427 122.158 126.134 122.008 127.752C119.257 127.359 118.051 124.41 117.593 122.799L122.425 124.427Z" fill="#ED985F"/>
<path d="M123.208 126.063C123.208 126.063 116.67 125.457 117.073 120.954C117.475 116.449 116.903 113.337 121.094 113.533C125.285 113.728 125.942 115.536 126.137 117.076C126.333 118.617 124.919 126.104 123.208 126.063Z" fill="#FFB27D"/>
<path d="M128.394 136.321C128.351 136.139 128.308 135.961 128.264 135.783C128.255 135.748 128.248 135.695 128.224 135.656C128.163 135.455 128.116 135.273 128.065 135.109C128.068 135.093 128.054 135.074 128.043 135.054C127.817 134.253 127.286 133.133 127.286 133.133C127.049 132.726 126.81 132.369 126.549 132.238C126.344 132.095 125.208 131.362 122.661 130.701C122.661 130.701 122.661 130.703 122.663 130.707C122.728 130.873 124.469 135.269 124.181 136.313C123.887 137.374 115.454 135.455 114.92 134.792C114.493 134.261 114.076 131.155 113.928 129.943C113.89 129.642 113.869 129.456 113.869 129.456C113.869 129.456 110.819 129.49 109.236 130.514C109.236 130.514 110.109 132.005 110.584 133.727C110.629 133.891 110.671 134.057 110.707 134.221C110.787 134.571 110.843 134.925 110.87 135.275C110.906 135.736 110.746 136.176 110.458 136.628C110.196 137.042 109.823 137.468 109.397 137.929C109.119 138.228 108.82 138.543 108.512 138.881C108.511 138.881 108.511 138.883 108.511 138.883C108.754 140.963 109.333 144.353 109.463 148.049C109.496 148.987 109.335 149.915 109.002 150.768C108.87 151.108 108.71 151.436 108.525 151.747C107.046 154.226 104.486 159.106 105.532 161.718C105.919 164.279 125.918 164.509 125.13 161.755C125.13 161.755 126.013 145.593 127.105 141.551C127.143 141.402 127.178 141.258 127.207 141.113C127.512 139.575 127.246 138.09 126.907 136.768C127.432 136.526 127.997 136.393 128.394 136.321Z" fill="#FF9843"/>
<path d="M126.17 114.551C125.283 113.083 124.494 113.296 124.03 113.656C120.658 111.088 118.069 114.045 118.069 114.045C117.34 117.229 115.069 118.847 115.069 118.847C115.069 118.847 116.185 119.793 118.999 119.316C119.858 119.17 120.666 118.593 121.374 117.864C120.078 119.801 118.433 121.118 118.433 121.118C121.86 119.805 123.632 114.903 123.811 114.383C124.174 114.825 124.882 115.773 125.045 116.642C125.267 117.827 125.2 120.204 125.828 120.192C125.828 120.192 127.499 116.75 126.17 114.551Z" fill="#2C3A64"/>
<path d="M119.173 157.33C115.31 157.905 111.462 153.993 109.002 150.768C109.335 149.915 109.496 148.987 109.463 148.049C109.333 144.353 108.754 140.963 108.511 138.883C108.511 138.883 108.511 138.881 108.511 138.881C108.82 138.543 109.119 138.228 109.397 137.929C109.822 137.468 110.195 137.042 110.458 136.627C114.391 142.034 124.412 156.55 119.173 157.33Z" fill="#ED7D2B"/>
<path d="M112.829 232.591H102.679C102.679 232.591 102.435 230.877 102.966 229.577C103.474 228.33 104.269 227.763 104.079 226.254C104.724 226.989 105.775 227.814 107.242 227.595C107.422 227.918 108.403 229.645 109.004 230.124C109.667 230.652 112.625 230.462 112.829 232.591Z" fill="#233862"/>
<path d="M134.623 232.591H124.473C124.473 232.591 124.093 230.799 124.759 229.577C125.35 228.498 125.124 227.882 124.687 226.989C125.146 227.198 125.741 227.388 126.396 227.347C126.902 227.314 127.437 227.06 127.906 226.759C128.343 227.31 130.213 229.659 130.798 230.124C131.461 230.652 134.419 230.462 134.623 232.591Z" fill="#233862"/>
<path d="M121.649 123.458C121.649 123.458 121.74 124.054 123.065 124.056C123.065 124.056 124.177 124.056 124.18 123.409C124.18 123.409 123.132 122.874 121.649 123.458Z" fill="white"/>
<path d="M138.535 161.221C137.999 162.026 136.582 163.254 134.756 162.315C133.448 161.655 132.054 161.162 131.376 160.931C131.106 160.856 130.953 160.803 130.953 160.803L131.817 158.463C131.817 158.463 131.842 158.479 131.906 158.497C132.381 158.643 134.727 158.652 136.017 159.417C137.51 160.302 139.166 160.274 138.535 161.221Z" fill="#FFB27D"/>
<path d="M132.652 158.796L132.29 161.001C132.29 161.001 131.611 160.931 130.53 160.814C130.205 160.778 130.019 160.745 130.019 160.745C129.154 160.641 128.116 160.487 126.986 160.324L126.971 160.325C125.032 160.003 122.857 159.602 121.011 159.101C119.712 158.735 118.577 158.318 117.792 157.868C117.712 157.825 117.648 157.78 117.566 157.719C115.676 156.46 113.235 152.456 111.24 148.103C110.963 147.502 110.701 146.9 110.442 146.314C109.505 144.132 108.723 141.969 108.209 140.085C107.89 138.963 107.657 137.935 107.559 137.079C107.52 136.776 107.483 136.493 107.477 136.221C107.466 136.067 107.457 135.914 107.451 135.766C108.215 135.025 109.976 133.643 112.379 133.786C112.429 133.881 112.479 133.977 112.529 134.075C113.565 136.162 114.696 138.885 115.766 141.596C116.358 143.083 116.933 144.571 117.5 145.941C117.826 146.774 118.147 147.557 118.448 148.275C119.031 149.643 119.545 150.747 119.982 151.433C120.262 151.882 121.012 152.471 121.997 153.123C123.709 154.263 126.187 155.602 128.338 156.684C129.231 157.141 130.075 157.552 130.775 157.891C131.906 158.444 132.652 158.796 132.652 158.796Z" fill="#FFB27D"/>
<path d="M112.524 134.081C109.529 133.469 107.471 136.217 107.471 136.217C107.125 131.341 109.263 130.463 109.263 130.463C110.112 129.974 111.266 131.565 112.524 134.081Z" fill="#FF9843"/>
<path d="M137.501 238.933H91.6668C91.0597 238.933 90.5633 238.384 90.5633 237.712V233.814C90.5633 233.142 91.0597 232.591 91.6668 232.591H137.501C138.108 232.591 138.604 233.142 138.604 233.814V237.712C138.604 238.384 138.108 238.933 137.501 238.933Z" fill="#EE9849"/>
<path d="M102.205 238.933L101.635 242.645L93.3731 296.367C93.35 296.553 93.1637 296.695 92.9412 296.695C92.5172 296.695 92.1868 296.385 92.2318 296.025L98.784 241.011L99.0321 238.933H102.205Z" fill="#EFCBAB"/>
<path d="M102.205 238.933L101.635 242.645C101.243 241.165 98.7841 241.011 98.7841 241.011L99.0322 238.933H102.205Z" fill="#CCA07F"/>
<path d="M136.226 296.695C136.004 296.695 135.818 296.553 135.795 296.367L127.533 242.645L127.177 240.329L126.962 238.933H130.135L130.384 241.011L130.578 242.643L136.936 296.025C136.981 296.385 136.65 296.695 136.226 296.695Z" fill="#EFCBAB"/>
<path d="M130.578 242.643C129.77 240.874 127.178 240.331 127.178 240.331C127.178 240.331 127.178 240.331 127.177 240.329L126.962 238.933H130.135L130.384 241.011L130.578 242.643Z" fill="#CCA07F"/>
</svg>
