<svg width="24" height="24" viewBox="0 0 24 24" fill="none" xmlns="http://www.w3.org/2000/svg">
<path fill-rule="evenodd" clip-rule="evenodd" d="M17.7197 2.21967C18.0126 1.92678 18.4874 1.92678 18.7803 2.21967L21.7803 5.21967C22.0732 5.51256 22.0732 5.98744 21.7803 6.28033L12.7803 15.2803C12.6656 15.3951 12.5167 15.4695 12.3561 15.4925L8.85607 15.9925C8.62238 16.0258 8.3866 15.9473 8.21968 15.7803C8.05275 15.6134 7.97416 15.3776 8.00755 15.1439L8.50755 11.6439C8.53049 11.4833 8.60493 11.3344 8.71968 11.2197L17.7197 2.21967ZM9.95711 12.1036L9.63389 14.3661L11.8965 14.0429L20.1893 5.75L18.25 3.81066L9.95711 12.1036Z" fill="#808080"/>
<path fill-rule="evenodd" clip-rule="evenodd" d="M5.15714 6.45714C4.21826 6.45714 3.45714 7.21826 3.45714 8.15714V13.9857C3.45714 14.3881 3.13095 14.7143 2.72857 14.7143C2.32619 14.7143 2 14.3881 2 13.9857V8.15714C2 6.4135 3.4135 5 5.15714 5H12.4429C12.8452 5 13.1714 5.32619 13.1714 5.72857C13.1714 6.13095 12.8452 6.45714 12.4429 6.45714H5.15714ZM18.2714 10.8286C18.6738 10.8286 19 11.1548 19 11.5571V18.8429C19 20.5865 17.5865 22 15.8429 22H5.15714C3.4135 22 2 20.5865 2 18.8429V17.8714C2 17.4691 2.32619 17.1429 2.72857 17.1429C3.13095 17.1429 3.45714 17.4691 3.45714 17.8714V18.8429C3.45714 19.7817 4.21826 20.5429 5.15714 20.5429H15.8429C16.7817 20.5429 17.5429 19.7817 17.5429 18.8429V11.5571C17.5429 11.1548 17.8691 10.8286 18.2714 10.8286Z" fill="#808080"/>
</svg>
