<svg width="11" height="7" viewBox="0 0 11 7" fill="none" xmlns="http://www.w3.org/2000/svg">
<path fill-rule="evenodd" clip-rule="evenodd" d="M10.9142 0.112602C10.7792 -0.016776 10.533 -0.0377523 10.3642 0.0657502L5.14686 3.26574C5.05403 3.32267 5 3.40887 5 3.5C5 3.59114 5.05403 3.67733 5.14686 3.73426L10.3642 6.93425C10.533 7.03775 10.7792 7.01678 10.9142 6.8874C11.0492 6.75802 11.0219 6.56923 10.8531 6.46573L6.01769 3.5L10.8531 0.53427C11.0219 0.430768 11.0492 0.24198 10.9142 0.112602Z" fill="black"/>
<path fill-rule="evenodd" clip-rule="evenodd" d="M5.91424 0.112602C5.77924 -0.016776 5.53299 -0.0377523 5.36424 0.0657502L0.146858 3.26574C0.0540349 3.32267 2.46541e-08 3.40887 2.46541e-08 3.5C2.46541e-08 3.59114 0.0540349 3.67733 0.146858 3.73426L2.23381 5.01426C2.40256 5.11776 2.64881 5.09678 2.78381 4.9674C2.91882 4.83803 2.89145 4.64924 2.7227 4.54574L1.01769 3.5L5.85313 0.53427C6.02188 0.430768 6.04924 0.24198 5.91424 0.112602ZM3.99878 5.71259C3.86378 5.84196 3.89114 6.03075 4.05989 6.13425L5.36424 6.93425C5.53299 7.03775 5.77924 7.01678 5.91424 6.8874C6.04924 6.75802 6.02188 6.56923 5.85313 6.46573L4.54878 5.66573C4.38003 5.56223 4.13378 5.58321 3.99878 5.71259Z" fill="black"/>
</svg>
