<svg width="44" height="44" viewBox="0 0 44 44" fill="none" xmlns="http://www.w3.org/2000/svg">
<path d="M36.4771 44H7.52351C3.36837 44 0 40.6319 0 36.476V7.52401C0 3.36932 3.36837 0 7.52351 0H36.4771C40.6319 0 44 3.36932 44 7.52401V36.476C44 40.6319 40.6319 44 36.4771 44Z" fill="#E3F0FF"/>
<path d="M39 10.6427V32.3573C39 32.8483 38.9364 33.3253 38.8194 33.7794C38.3602 35.5437 37.0703 36.9722 35.3913 37.6209C35.3272 37.6464 35.2628 37.6693 35.1985 37.6909C34.6203 37.8919 34.0017 38 33.3566 38H11.6423C11.3565 38 11.0745 37.9784 10.7999 37.9364C9.04172 37.6731 7.54898 36.5995 6.71464 35.1062C6.25937 34.2933 6 33.3559 6 32.3573V10.6427C6 7.52624 8.52616 5 11.6423 5H33.3566C36.4737 5 39 7.52624 39 10.6427Z" fill="#D2E4FF"/>
<path d="M20.3847 19.4458C20.3847 19.4458 20.2915 22.218 19.9223 23.4597L17 25.4183L28 27L25.3766 23.5169C25.3766 23.5169 24.5848 19.8001 25.0001 18.426C25.4155 17.0506 20.3847 19.4458 20.3847 19.4458Z" fill="#FFB27D"/>
<path d="M20 19C20 18.9988 20.9622 21.0441 22.7748 20.9993C24.5875 20.9532 25 19.1454 25 19.1454L20 19Z" fill="#ED985F"/>
<path d="M19.1355 18C19.1355 18 18.5886 15.4644 18.2071 14.697C17.8256 13.9285 17.5076 10.5028 21.7365 10.3253C21.7365 10.3253 23.358 10.5028 24.2483 10C24.2483 10 24.2483 10.5028 24.0259 10.6792C24.0259 10.6792 25.4882 10.3551 26.633 11.5359C27.7777 12.7179 25.8702 16.8525 25.9655 17.8272L19.1355 18Z" fill="#99592E"/>
<path d="M26 14.3136V17.227C26 17.7138 25.8851 18.1818 25.6912 18.6121H25.6899C25.3542 19.3549 24.7832 19.986 24.1585 20.4113C23.6041 20.7915 23.0086 21.0085 22.5001 20.9997C22.0573 20.991 21.4817 20.7802 20.924 20.4201C20.1734 19.9358 19.4585 19.183 19.1538 18.2972L19.1493 18.2834L19.1381 18.247C19.0502 17.9747 19 17.6925 19 17.4014V14.3136C19 13.5909 19.5176 13 20.1499 13H24.8501C25.4825 13 26 13.5909 26 14.3136Z" fill="#FFB27D"/>
<path d="M28.8117 23.7702C28.8117 23.7702 26.1734 23.1999 24.9919 23.0611C23.9488 24.4525 23.2003 24.8255 22.2477 25.2049C20.713 24.9923 19.4207 23.0433 19.4207 23C17.7517 23.1719 16.625 23.5296 16.1659 23.6734H16.164C16.057 23.6874 11.9709 24.2577 6 35.1052C6.83162 36.5984 8.31949 37.6741 10.072 37.9363C10.8413 37.2693 12.4941 35.8282 13.7896 34.6978C13.7754 35.0631 13.7724 35.3929 13.7806 35.6806C13.8028 36.4571 13.8273 37.2285 13.8446 38H30.1348C30.1033 37.6079 30.0779 37.2298 30.0595 36.8696C30.0036 35.7455 29.9518 34.7182 29.9038 33.7812C29.9028 33.7736 29.9028 33.7647 29.9018 33.757C29.9013 33.7468 29.9008 33.7379 29.9003 33.7277L29.9038 33.7303C30.1399 33.9353 30.4209 34.1809 30.7272 34.4483C30.7882 34.5005 30.8503 34.5552 30.9135 34.6099C30.9672 34.6571 31.0224 34.7054 31.0782 34.7538C31.1546 34.82 31.232 34.8875 31.3094 34.9562C31.4486 35.0771 31.59 35.1994 31.7327 35.3241C31.7977 35.3814 31.864 35.4387 31.9291 35.496C31.9637 35.5265 31.9983 35.5571 32.0338 35.5876C32.0736 35.622 32.1142 35.6564 32.154 35.692C32.1834 35.7175 32.2139 35.7429 32.2436 35.7697C32.3139 35.8308 32.383 35.8919 32.4521 35.9517C32.5092 36.0026 32.5652 36.051 32.6221 36.1007C32.6689 36.1414 32.7167 36.1821 32.7636 36.2229C32.9345 36.3731 33.1025 36.5195 33.2653 36.6608C33.3303 36.7168 33.3945 36.7741 33.4586 36.8288C33.5247 36.8874 33.591 36.9447 33.655 36.9994C33.6998 37.0389 33.7447 37.0783 33.7894 37.1165C33.8097 37.1344 33.8291 37.1509 33.8485 37.1675C33.9166 37.2273 33.9818 37.2858 34.0459 37.3393C34.112 37.3979 34.1761 37.4539 34.2371 37.5074C34.2627 37.5303 34.2881 37.5506 34.3124 37.5723C34.3389 37.5965 34.3654 37.6181 34.3909 37.6397C34.4551 37.6181 34.5192 37.5952 34.5831 37.5697C36.2566 36.9205 37.5423 35.4909 38 33.7252C32.4074 24.0592 28.8117 23.7702 28.8117 23.7702Z" fill="#F95B46"/>
<path d="M19.1554 15C19.1554 15 19.1619 12.9741 20.6578 12.6616C22.1538 12.3505 25.5019 13.6499 25.9767 12.1723C26.4516 10.6934 19.5051 10.7194 19.1554 11.6624C18.8057 12.6054 19.1554 15 19.1554 15Z" fill="#99592E"/>
<path d="M24 19.2314V20.4439C23.4858 20.803 22.9334 21.0081 22.4618 20.9998C22.0511 20.9915 21.5173 20.7923 21 20.4522V19.2314C21 18.5547 21.5586 18 22.2414 18H22.7585C23.4414 18 24 18.5547 24 19.2314Z" fill="#99592E"/>
<path d="M25 18.3979C24.421 19.9251 23.0696 21.0189 22.0788 20.9998C21.1268 20.9792 19.4997 19.7364 19.0144 18.0547L19.0103 18.0397L19 18C19 18 20.0225 19.0104 20.6988 18.51H23.5394C23.5394 18.51 24.283 19.0022 25 18.3979Z" fill="#99592E"/>
<path d="M22.711 19H22.2436C22.1363 19 22 18.5496 22 18.2748C22 18.2748 22.1363 18 22.2436 18H22.711C22.8182 18 22.9748 18.2286 23 18.3926C23 18.3926 22.9351 19 22.711 19Z" fill="#FFB27D"/>
</svg>
