<svg width="44" height="44" viewBox="0 0 44 44" fill="none" xmlns="http://www.w3.org/2000/svg">
<path d="M36.4774 44H7.52413C3.3697 44 0 40.6312 0 36.4763V7.52357C0 3.36834 3.3697 0 7.52413 0H36.4774C40.6318 0 44 3.36834 44 7.52357V36.4763C44 40.6312 40.6318 44 36.4774 44Z" fill="#E3F0FF"/>
<path d="M38 10.6434V32.3575C38 32.9001 37.924 33.4252 37.7811 33.9218C37.1261 36.1918 35.0865 37.8743 32.6335 37.9929C32.5423 37.9979 32.4511 38 32.3569 38H10.6416C10.6021 38 10.5641 38 10.5246 37.9979C10.4896 37.9979 10.4516 37.997 10.4136 37.9948C7.95303 37.8977 5.89669 36.2232 5.22949 33.9554C5.07903 33.4487 5 32.9124 5 32.3575V10.6434C5 7.52647 7.52596 5 10.6416 5H32.3569C35.4741 5 38 7.52647 38 10.6434Z" fill="#D2E4FF"/>
<path d="M18.6155 20.9276C18.6155 20.9276 18.4875 24.6235 17.9844 26.2792L14 28.891L29 31L25.4234 26.3561C25.4234 26.3561 24.3428 21.4008 24.9099 19.5676C25.4755 17.7346 18.6155 20.9276 18.6155 20.9276Z" fill="#FFB27D"/>
<path d="M18 21C18 20.9986 19.1533 24.0664 21.3303 23.9989C23.5045 23.9314 24 21.2178 24 21.2178L18 21Z" fill="#ED985F"/>
<path d="M17.5132 19C17.5132 19 16.7848 15.5134 16.2757 14.4574C15.7681 13.4016 15.3431 8.69055 20.9809 8.4467C20.9809 8.4467 23.1435 8.69056 24.3315 8C24.3315 8 24.3315 8.69057 24.0356 8.93413C24.0356 8.93413 25.985 8.48727 27.5108 10.112C29.0366 11.7363 26.4941 17.4224 26.6217 18.7626L17.5132 19Z" fill="#2C3A64"/>
<path d="M21.4986 22.9997C19.9155 22.9732 17 20.9759 17 18.5023V14.6424C17 13.7391 17.6655 13 18.4779 13H24.5206C25.3345 13 26 13.7391 26 14.6424V18.2838C26 20.8774 23.3164 23.03 21.4986 22.9997Z" fill="#FFB27D"/>
<path d="M17.1997 16C17.1997 16 17.2083 13.4666 19.1315 13.0771C21.0547 12.6876 25.3604 14.3118 25.97 12.4646C26.5811 10.6173 17.6505 10.6491 17.1997 11.8275C16.7504 13.0061 17.1997 16 17.1997 16Z" fill="#2C3A64"/>
<path d="M32 38H11.1198C11.0794 38 11.0404 38 11 37.9979C11.5288 33.1579 12.6627 27.3206 13.569 26.9364C13.569 26.9364 13.6724 26.8977 13.8731 26.8348C13.8746 26.8338 13.8776 26.8338 13.8776 26.8338C14.351 26.684 15.3561 26.4044 16.8151 26.1781C16.8181 26.1781 16.8241 26.177 16.8256 26.177C17.248 26.1112 17.7049 26.0515 18.2007 26C18.2007 26.0588 19.9174 28.5975 21.9531 28.8825C23.2204 28.3755 24.2151 27.9441 25.5992 26.0829C26.0561 26.1373 26.5249 26.2001 27.0028 26.2755C28.1652 26.4567 29.392 26.703 30.6713 27.0297C30.8241 27.0673 30.9754 27.1072 31.1297 27.149H31.1312C31.1911 27.1637 31.2525 27.1805 31.3124 27.1972C31.3124 27.1972 31.3274 27.261 31.3649 27.6403C31.3649 27.6403 31.3649 27.6403 31.3649 27.6413C31.4428 28.5012 31.63 30.9803 32 38Z" fill="#F0BE73"/>
<path d="M13.9621 27.6363C13.9566 27.6375 13.951 27.6383 13.9469 27.6402C13.8696 27.6568 13.7646 27.6832 13.6334 27.727C13.6252 27.7299 13.6169 27.7318 13.61 27.7337C13.6044 27.7368 13.5975 27.7386 13.592 27.7396C13.5851 27.7426 13.5796 27.7437 13.5796 27.7437C12.497 28.1031 9.78634 29.4207 6 34.142C6.66558 36.3053 8.71203 37.9025 11.1645 37.9952C11.2004 37.9971 11.239 37.9982 11.2735 37.9982C11.3136 38 11.3509 38 11.3909 38H13.4318H16.8384C16.8992 34.6741 16.9406 31.7809 16.9669 29.7977C16.9765 28.9218 16.9862 28.224 16.9917 27.7437C16.9972 27.2621 17 27 17 27C16.9972 27 16.9917 27.0009 16.9903 27.0009C15.916 27.1238 14.5987 27.4609 13.9621 27.6363Z" fill="#8B2B2B"/>
<path d="M30.0815 27.8656C29.8163 27.7664 29.6356 27.7261 29.5452 27.7104C29.5423 27.7104 29.5409 27.7104 29.5409 27.7095C28.8429 27.5325 27.2648 27.1523 26 27C26 27 26 27 26 27.0009C26 27.0295 26.0044 27.6337 26.0117 28.6763V28.6772C26.019 29.3455 26.0262 30.1944 26.035 31.1869C26.0525 33.035 26.0772 35.3825 26.1122 38H29.8614H31.7951C31.8854 38 31.9728 37.9981 32.0603 37.9931C34.4136 37.8792 36.372 36.2609 37 34.0776C33.5888 29.5999 31.1525 28.2617 30.0815 27.8656Z" fill="#8B2B2B"/>
<path d="M24.8608 16.9838C24.7577 17.4365 24.3709 17.7262 23.7135 17.8443C23.2122 17.9346 22.7353 17.8855 22.731 17.8845H22.7224C22.2354 17.8845 21.8888 17.6333 21.6325 17.0938C21.5995 17.0232 21.5279 16.8541 21.5093 16.6754C21.5093 16.6751 21.5093 16.675 21.5093 16.675C21.5437 16.6869 21.578 16.7003 21.611 16.7158C21.6453 16.7317 21.6869 16.7203 21.7055 16.6902C21.7227 16.6602 21.7098 16.6231 21.6769 16.6071C21.621 16.5812 21.5637 16.5612 21.5078 16.5438C21.5078 16.5434 21.5078 16.5433 21.5078 16.5429C21.5164 16.4597 21.5408 16.3801 21.5909 16.3113C21.6955 16.1735 21.8989 16.1029 22.1939 16.1029H23.967C24.2807 16.1029 24.5557 16.2048 24.7204 16.382C24.8665 16.5394 24.9152 16.7477 24.8608 16.9838ZM20.4881 16.686C20.4695 16.8605 20.3993 17.0249 20.3678 17.0938C20.1114 17.6333 19.7648 17.8845 19.2764 17.8845H19.2692C19.2635 17.8855 18.7865 17.9346 18.2867 17.8443C17.6278 17.7262 17.2426 17.4365 17.138 16.9838C17.0836 16.7477 17.1337 16.5394 17.2784 16.382C17.4431 16.2048 17.7181 16.1029 18.0332 16.1029H19.8049C20.1014 16.1029 20.3047 16.1735 20.4079 16.3113C20.4623 16.382 20.4866 16.4669 20.4909 16.5537C20.4909 16.554 20.4909 16.5544 20.4909 16.5548C20.4021 16.58 20.3434 16.6023 20.3362 16.6057C20.3004 16.6198 20.2847 16.6563 20.3019 16.6871C20.3133 16.7097 20.3377 16.723 20.3649 16.723C20.3749 16.723 20.3849 16.7212 20.3935 16.7176C20.395 16.7168 20.4308 16.7033 20.4881 16.6855C20.4881 16.6857 20.4881 16.686 20.4881 16.686ZM24.8107 16.3167C24.623 16.1153 24.3165 16 23.967 16H22.1939C21.8573 16 21.621 16.0859 21.4935 16.254C21.4348 16.3328 21.4047 16.4213 21.3933 16.5126C21.3933 16.5129 21.3933 16.5132 21.3933 16.5134C21.0968 16.4483 20.8075 16.4817 20.607 16.526V16.525C20.5955 16.4294 20.5668 16.3364 20.5053 16.254C20.3778 16.0859 20.1429 16 19.8049 16H18.0332C17.6837 16 17.3758 16.1153 17.1896 16.3167C17.0191 16.4992 16.9633 16.737 17.0234 17.0045C17.2254 17.8872 18.3798 18 18.9556 18C19.1332 18 19.2563 17.9891 19.2792 17.9874C19.8192 17.9865 20.1988 17.7147 20.4752 17.1333C20.521 17.0348 20.5969 16.8479 20.6084 16.6538V16.6537C20.7989 16.6086 21.0939 16.5682 21.3904 16.6391V16.6394C21.399 16.8389 21.4763 17.0321 21.525 17.1333C21.8015 17.7147 22.181 17.9865 22.721 17.9874C22.7439 17.9891 22.8656 18 23.0447 18C23.6204 18 24.7734 17.8872 24.9768 17.0045C25.0369 16.737 24.9797 16.4992 24.8107 16.3167Z" fill="#B64C41"/>
</svg>
