<svg width="44" height="44" viewBox="0 0 44 44" fill="none" xmlns="http://www.w3.org/2000/svg">
<path d="M36.476 44H7.52401C3.36932 44 0 40.6319 0 36.476V7.52402C0 3.36807 3.36932 0 7.52401 0H36.476C40.6319 0 44 3.36807 44 7.52402V36.476C44 40.6319 40.6319 44 36.476 44Z" fill="#E3F0FF"/>
<path d="M39 10.6429V32.3571C39 33.7462 38.4988 35.017 37.6669 36.0003C36.6327 37.2228 35.0858 38 33.3584 38H11.6429C10.2169 38 8.91557 37.4721 7.92336 36.5994C6.74415 35.5653 6 34.0489 6 32.3571V10.6429C6 7.52632 8.52632 5 11.6429 5H33.3584C36.4749 5 39 7.52632 39 10.6429Z" fill="#D2E4FF"/>
<path d="M20.0281 24.9875C20.0281 24.9875 16.4532 24.8137 16.3531 22.8193C16.2529 20.8249 13.2993 19.3703 14.1555 17.7693C15.2042 15.8059 14.2466 13.917 15.5713 12.5977C17.0295 11.142 18.8728 11.9325 19.8458 11.0849C20.8175 10.2372 22.5953 9.45657 24.3487 10.5028C26.1021 11.5503 27.4409 10.9868 28.5936 11.9958C29.867 13.1091 29.3843 14.5115 30.4343 15.2735C31.397 15.971 31.0055 17.8786 30.1943 19.4287C29.6102 20.5456 30.9568 21.5931 28.6437 22.8764C27.6823 23.4113 27.8902 24.7554 24.9687 24.9875C23.6517 25.0917 20.7957 24.496 20.0281 24.9875Z" fill="#434754"/>
<path d="M19.6921 23.6067C19.6921 23.6067 19.5906 26.6866 19.1883 28.0664L16 30.2423L28 32L25.1388 28.1302C25.1388 28.1302 24.2741 24.0004 24.7277 22.4733C25.1814 20.945 19.6921 23.6067 19.6921 23.6067Z" fill="#B56F40"/>
<path d="M20 24C20 23.9989 20.9631 26.0441 22.7751 25.9993C24.587 25.9544 25 24.1447 25 24.1447L20 24Z" fill="#99592E"/>
<path d="M22.4994 24.9997C21.2678 24.9762 19 23.1776 19 20.9518V17.4786C19 16.6662 19.5175 16 20.1494 16H24.8506C25.4825 16 26 16.6662 26 17.4786V20.7559C26 23.09 23.9135 25.0271 22.4994 24.9997Z" fill="#B56F40"/>
<path d="M29.4964 28.8774H29.4951C28.0577 28.5084 26.7058 28.2143 25.4581 28.0659C24.3542 29.5621 23.5642 29.9615 22.5558 30.3685C20.9348 30.139 19.5693 28.0469 19.5693 28C17.8031 28.1838 16.6137 28.5655 16.1275 28.7202C16.1275 28.7202 16.1263 28.7202 16.1225 28.7214C15.9811 28.7405 12.8234 29.24 8 36.6053C8.96741 37.4738 10.2362 38 11.6266 38H13.8069H15.5681H30.568C30.5667 37.9835 30.5667 37.967 30.5655 37.9493H32.7992C34.4835 37.9493 35.9917 37.1746 37 35.9561C33.6103 30.0071 29.4964 28.8774 29.4964 28.8774Z" fill="#E1E36F"/>
<path d="M19.0073 19C19.0073 19 19.8752 16.4056 22.7198 16.8098C25.5656 17.2151 25.8113 17.8101 26.1139 18.4998C26.4166 19.1908 27 15.9766 27 15.9766L23.6446 15C23.6446 15 19.5835 15.4527 19.2917 16.1188C19 16.7861 19 16.7861 19 16.7861L19.0073 19Z" fill="#434754"/>
<path d="M25.8797 19.9825C25.7889 20.4361 25.4507 20.7256 24.875 20.8434C24.436 20.9348 24.0182 20.8847 24.0145 20.8835H24.0083C23.5805 20.8835 23.2772 20.6328 23.0546 20.094C23.0235 20.0226 22.9613 19.8534 22.9464 19.6754C22.9464 19.6742 22.9464 19.6742 22.9464 19.6742C22.9762 19.6855 23.0048 19.6992 23.0347 19.7155C23.0645 19.7306 23.1018 19.7193 23.1168 19.6892C23.1329 19.6591 23.1217 19.6228 23.0919 19.6065C23.0434 19.5802 22.9949 19.5614 22.9464 19.5439C22.9464 19.5426 22.9464 19.5426 22.9464 19.5426C22.9526 19.4586 22.9738 19.3784 23.0185 19.3108C23.1093 19.1717 23.2871 19.1028 23.5457 19.1028H25.0963C25.3711 19.1028 25.6123 19.2043 25.7553 19.3809C25.8834 19.5376 25.9269 19.7469 25.8797 19.9825ZM22.0536 19.6855C22.0362 19.8597 21.974 20.0238 21.9467 20.094C21.7229 20.6328 21.4195 20.8835 20.9917 20.8835H20.9855C20.9805 20.8847 20.564 20.9348 20.125 20.8434C19.5493 20.7256 19.2111 20.4361 19.1203 19.9825C19.0743 19.7469 19.1154 19.5376 19.2447 19.3809C19.3877 19.2043 19.6289 19.1028 19.9037 19.1028H21.4555C21.7141 19.1028 21.8907 19.1717 21.9827 19.3108C22.0287 19.381 22.0499 19.4662 22.0549 19.5526V19.5539C21.9765 19.579 21.9255 19.6015 21.9193 19.6053C21.8882 19.619 21.8745 19.6554 21.8882 19.6867C21.8994 19.7093 21.9218 19.7218 21.9442 19.7218C21.9529 19.7218 21.9616 19.7206 21.9703 19.7168C21.9715 19.7155 22.0026 19.7018 22.0536 19.6842V19.6855ZM25.8349 19.3158C25.6708 19.114 25.4022 19 25.0963 19H23.5457C23.2498 19 23.0446 19.084 22.9327 19.2531C22.8805 19.3308 22.8544 19.4198 22.8457 19.5125C22.5858 19.4474 22.3321 19.4812 22.1556 19.5251V19.5238C22.1481 19.4286 22.1208 19.3346 22.0673 19.2531C21.9566 19.084 21.7502 19 21.4555 19H19.9037C19.5978 19 19.328 19.114 19.1651 19.3158C19.0171 19.4975 18.9674 19.7356 19.0209 20.0025C19.1974 20.8872 20.2071 21 20.7119 21C20.8674 21 20.9743 20.9887 20.9942 20.9862C21.4667 20.985 21.7987 20.7143 22.0399 20.1328C22.081 20.0326 22.1481 19.8471 22.1581 19.6529C22.3259 19.6078 22.5833 19.5664 22.8419 19.6391C22.8494 19.8383 22.9178 20.0313 22.9588 20.1328C23.2013 20.7143 23.5333 20.985 24.0058 20.9862C24.0257 20.9887 24.1326 21 24.2881 21C24.7929 21 25.8026 20.8872 25.9791 20.0038C26.0326 19.7356 25.9829 19.4975 25.8349 19.3158Z" fill="#2C3A64"/>
</svg>
