<svg width="44" height="44" viewBox="0 0 44 44" fill="none" xmlns="http://www.w3.org/2000/svg">
<path d="M36.4758 44H7.52423C3.36889 44 0 40.6311 0 36.4758V7.52423C0 3.3689 3.36889 0 7.52423 0H36.4758C40.6311 0 44 3.3689 44 7.52423V36.4758C44 40.6311 40.6311 44 36.4758 44Z" fill="#E3F0FF"/>
<path d="M39 10.6426V32.3574C39 33.8444 38.4248 35.1954 37.4843 36.2039C36.4544 37.309 34.9864 38 33.3574 38H11.6426C9.96821 38 8.46327 37.2708 7.42975 36.1108C6.54063 35.1142 6 33.7991 6 32.3574V10.6426C6 7.52653 8.52653 5 11.6426 5H33.3574C36.4735 5 39 7.52653 39 10.6426Z" fill="#D2E4FF"/>
<path d="M17.4456 21C17.4456 21 14.3704 15.0602 17.1906 12.4375C20.0108 9.81476 24.9759 11.3809 25.8899 12.4375C26.804 13.4952 28.0196 16.5036 25.4975 20.7805L17.4456 21Z" fill="#2C3A64"/>
<path d="M18.9998 23.7668C18.9998 23.7668 18.8903 27.1554 18.4535 28.6732L15 31.0674L28 33L24.8993 28.7431C24.8993 28.7431 23.9633 24.201 24.4543 22.5205C24.9454 20.8399 18.9998 23.7668 18.9998 23.7668Z" fill="#B56F40"/>
<path d="M19 25C19 24.999 19.9625 27.045 21.7751 26.9992C23.5867 26.9545 24 25.1448 24 25.1448L19 25Z" fill="#99592E"/>
<path d="M21.9994 25.9997C20.5915 25.9726 18 23.9749 18 21.5014V17.6416C18 16.7382 18.5912 16 19.3131 16H24.6857C25.4088 16 26 16.7382 26 17.6416V21.2833C26 23.8775 23.6145 26.0293 21.9994 25.9997Z" fill="#B56F40"/>
<path d="M37 36.2498C35.9719 37.3267 34.5067 38 32.8806 38H11.2052C9.53385 38 8.03165 37.2894 7 36.1591C11.646 30.1327 14.5908 29.7536 14.6671 29.7454C15.2163 29.5791 16.5517 29.2 18.5506 29C18.5506 29.05 20.1065 31.277 21.9422 31.5236C23.0823 31.084 23.9364 30.6537 25.1837 29.0361C26.5965 29.1965 28.1655 29.5152 29.7916 29.9152L29.7904 29.9071C29.7904 29.9071 32.5434 30.5816 37 36.2498Z" fill="#74ACBE"/>
<path d="M18.0081 19C18.0081 19 18.9839 15.756 22.1855 16.2629C25.3859 16.7686 25.6634 17.5119 26.0033 18.3761C26.3433 19.239 27 15.2214 27 15.2214L23.225 14C23.225 14 18.6556 14.566 18.3284 15.3987C18 16.2327 18 16.2327 18 16.2327L18.0081 19Z" fill="#2C3A64"/>
<path d="M21 13C21 13 18.0494 9.76202 19.3159 9.07034C20.5815 8.37988 21 13 21 13Z" fill="#2C3A64"/>
<path d="M21 13C21 13 17.1736 11.3702 18.1636 10.2127C19.1546 9.05517 21 13 21 13Z" fill="#2C3A64"/>
<path d="M22.1694 14C22.1694 14 21.3433 9.97078 23.3396 10.0002C25.336 10.0295 22.1694 14 22.1694 14Z" fill="#2C3A64"/>
<path d="M22 13C22 13 23.8897 8.61706 25.6482 9.02707C27.4068 9.43708 22 13 22 13Z" fill="#2C3A64"/>
<path d="M22 14C22 14 25.1011 10.2578 26.7328 11.1325C28.3632 12.0085 22 14 22 14Z" fill="#2C3A64"/>
</svg>
