<svg width="44" height="45" viewBox="0 0 44 45" fill="none" xmlns="http://www.w3.org/2000/svg">
<path d="M36.476 44.5H7.52401C3.36932 44.5 0 41.1319 0 36.976V8.02402C0 3.86807 3.36932 0.5 7.52401 0.5H36.476C40.6319 0.5 44 3.86807 44 8.02402V36.976C44 41.1319 40.6319 44.5 36.476 44.5Z" fill="#E3F0FF"/>
<path d="M39 11.6429V33.3571C39 34.7462 38.4988 36.017 37.6669 37.0003C36.6327 38.2228 35.0858 39 33.3584 39H11.6429C10.2169 39 8.91557 38.4721 7.92336 37.5994C6.74415 36.5653 6 35.0489 6 33.3571V11.6429C6 8.52632 8.52632 6 11.6429 6H33.3584C36.4749 6 39 8.52632 39 11.6429Z" fill="#D2E4FF"/>
<path d="M20.0281 25.9875C20.0281 25.9875 16.4532 25.8137 16.3531 23.8193C16.2529 21.8249 13.2993 20.3703 14.1555 18.7693C15.2042 16.8059 14.2466 14.917 15.5713 13.5977C17.0295 12.142 18.8728 12.9325 19.8458 12.0849C20.8175 11.2372 22.5953 10.4566 24.3487 11.5028C26.1021 12.5503 27.4409 11.9868 28.5936 12.9958C29.867 14.1091 29.3843 15.5115 30.4343 16.2735C31.397 16.971 31.0055 18.8786 30.1943 20.4287C29.6102 21.5456 30.9568 22.5931 28.6437 23.8764C27.6823 24.4113 27.8902 25.7554 24.9687 25.9875C23.6517 26.0917 20.7957 25.496 20.0281 25.9875Z" fill="#2C3A64"/>
<path d="M19.6921 24.6067C19.6921 24.6067 19.5906 27.6866 19.1883 29.0664L16 31.2423L28 33L25.1388 29.1302C25.1388 29.1302 24.2741 25.0004 24.7277 23.4733C25.1814 21.945 19.6921 24.6067 19.6921 24.6067Z" fill="#B56F40"/>
<path d="M20 25C20 24.9989 20.9631 27.0441 22.7751 26.9993C24.587 26.9544 25 25.1447 25 25.1447L20 25Z" fill="#99592E"/>
<path d="M22.4994 25.9997C21.2678 25.9762 19 24.1776 19 21.9518V18.4786C19 17.6662 19.5175 17 20.1494 17H24.8506C25.4825 17 26 17.6662 26 18.4786V21.7559C26 24.09 23.9135 26.0271 22.4994 25.9997Z" fill="#B56F40"/>
<path d="M29.4964 29.8774H29.4951C28.0577 29.5084 26.7058 29.2143 25.4581 29.0659C24.3542 30.5621 23.5642 30.9615 22.5558 31.3685C20.9348 31.139 19.5693 29.0469 19.5693 29C17.8031 29.1838 16.6137 29.5655 16.1275 29.7202C16.1275 29.7202 16.1263 29.7202 16.1225 29.7214C15.9811 29.7405 12.8234 30.24 8 37.6053C8.96741 38.4738 10.2362 39 11.6266 39H13.8069H15.5681H30.568C30.5667 38.9835 30.5667 38.967 30.5655 38.9493H32.7992C34.4835 38.9493 35.9917 38.1746 37 36.9561C33.6103 31.0071 29.4964 29.8774 29.4964 29.8774Z" fill="#6541CC"/>
<path d="M19.0073 20C19.0073 20 19.8752 17.4056 22.7198 17.8098C25.5656 18.2151 25.8113 18.8101 26.1139 19.4998C26.4166 20.1908 27 16.9766 27 16.9766L23.6446 16C23.6446 16 19.5835 16.4527 19.2917 17.1188C19 17.7861 19 17.7861 19 17.7861L19.0073 20Z" fill="#2C3A64"/>
<path d="M25.8797 20.9825C25.7889 21.4361 25.4507 21.7256 24.875 21.8434C24.436 21.9348 24.0182 21.8847 24.0145 21.8835H24.0083C23.5805 21.8835 23.2772 21.6328 23.0546 21.094C23.0235 21.0226 22.9613 20.8534 22.9464 20.6754C22.9464 20.6742 22.9464 20.6742 22.9464 20.6742C22.9762 20.6855 23.0048 20.6992 23.0347 20.7155C23.0645 20.7306 23.1018 20.7193 23.1168 20.6892C23.1329 20.6591 23.1217 20.6228 23.0919 20.6065C23.0434 20.5802 22.9949 20.5614 22.9464 20.5439C22.9464 20.5426 22.9464 20.5426 22.9464 20.5426C22.9526 20.4586 22.9738 20.3784 23.0185 20.3108C23.1093 20.1717 23.2871 20.1028 23.5457 20.1028H25.0963C25.3711 20.1028 25.6123 20.2043 25.7553 20.3809C25.8834 20.5376 25.9269 20.7469 25.8797 20.9825ZM22.0536 20.6855C22.0362 20.8597 21.974 21.0238 21.9467 21.094C21.7229 21.6328 21.4195 21.8835 20.9917 21.8835H20.9855C20.9805 21.8847 20.564 21.9348 20.125 21.8434C19.5493 21.7256 19.2111 21.4361 19.1203 20.9825C19.0743 20.7469 19.1154 20.5376 19.2447 20.3809C19.3877 20.2043 19.6289 20.1028 19.9037 20.1028H21.4555C21.7141 20.1028 21.8907 20.1717 21.9827 20.3108C22.0287 20.381 22.0499 20.4662 22.0549 20.5526V20.5539C21.9765 20.579 21.9255 20.6015 21.9193 20.6053C21.8882 20.619 21.8745 20.6554 21.8882 20.6867C21.8994 20.7093 21.9218 20.7218 21.9442 20.7218C21.9529 20.7218 21.9616 20.7206 21.9703 20.7168C21.9715 20.7155 22.0026 20.7018 22.0536 20.6842V20.6855ZM25.8349 20.3158C25.6708 20.114 25.4022 20 25.0963 20H23.5457C23.2498 20 23.0446 20.084 22.9327 20.2531C22.8805 20.3308 22.8544 20.4198 22.8457 20.5125C22.5858 20.4474 22.3321 20.4812 22.1556 20.5251V20.5238C22.1481 20.4286 22.1208 20.3346 22.0673 20.2531C21.9566 20.084 21.7502 20 21.4555 20H19.9037C19.5978 20 19.328 20.114 19.1651 20.3158C19.0171 20.4975 18.9674 20.7356 19.0209 21.0025C19.1974 21.8872 20.2071 22 20.7119 22C20.8674 22 20.9743 21.9887 20.9942 21.9862C21.4667 21.985 21.7987 21.7143 22.0399 21.1328C22.081 21.0326 22.1481 20.8471 22.1581 20.6529C22.3259 20.6078 22.5833 20.5664 22.8419 20.6391C22.8494 20.8383 22.9178 21.0313 22.9588 21.1328C23.2013 21.7143 23.5333 21.985 24.0058 21.9862C24.0257 21.9887 24.1326 22 24.2881 22C24.7929 22 25.8026 21.8872 25.9791 21.0038C26.0326 20.7356 25.9829 20.4975 25.8349 20.3158Z" fill="#2C3A64"/>
</svg>
