<svg width="12" height="10" viewBox="0 0 12 10" fill="none" xmlns="http://www.w3.org/2000/svg">
<path fill-rule="evenodd" clip-rule="evenodd" d="M1.08576 1.1126C1.22076 0.983224 1.46701 0.962248 1.63576 1.06575L6.85314 4.26574C6.94597 4.32267 7 4.40887 7 4.5C7 4.59114 6.94597 4.67733 6.85314 4.73426L1.63576 7.93425C1.46701 8.03775 1.22076 8.01678 1.08576 7.8874C0.950758 7.75802 0.978118 7.56923 1.14687 7.46573L5.98231 4.5L1.14687 1.53427C0.978118 1.43077 0.950758 1.24198 1.08576 1.1126Z" fill="#7B7B7B"/>
<path fill-rule="evenodd" clip-rule="evenodd" d="M6.08576 1.1126C6.22076 0.983224 6.46701 0.962248 6.63576 1.06575L11.8531 4.26574C11.946 4.32267 12 4.40887 12 4.5C12 4.59114 11.946 4.67733 11.8531 4.73426L9.76619 6.01426C9.59744 6.11776 9.35119 6.09678 9.21619 5.9674C9.08118 5.83803 9.10855 5.64924 9.2773 5.54574L10.9823 4.5L6.14687 1.53427C5.97812 1.43077 5.95076 1.24198 6.08576 1.1126ZM8.00122 6.71259C8.13622 6.84196 8.10886 7.03075 7.94011 7.13425L6.63576 7.93425C6.46701 8.03775 6.22076 8.01678 6.08576 7.8874C5.95076 7.75802 5.97812 7.56923 6.14687 7.46573L7.45122 6.66573C7.61997 6.56223 7.86622 6.58321 8.00122 6.71259Z" fill="#7B7B7B"/>
</svg>
