<svg width="60" height="59" viewBox="0 0 60 59" fill="none" xmlns="http://www.w3.org/2000/svg">
<path d="M49.7419 59H10.2602C4.59505 59 0 54.4827 0 48.9114V10.0884C0 4.51664 4.59505 0 10.2602 0H49.7419C55.407 0 60 4.51664 60 10.0884V48.9114C60 54.4827 55.407 59 49.7419 59Z" fill="#E3F0FF"/>
<path d="M53 14.5245V43.4767C53 44.2001 52.8964 44.9003 52.7016 45.5625C51.8083 48.589 49.027 50.8324 45.682 50.9905C45.5577 50.9972 45.4333 51 45.3048 51H15.6931C15.6392 51 15.5874 51 15.5335 50.9972C15.4858 50.9972 15.434 50.996 15.3822 50.9931C12.0269 50.8636 9.22276 48.631 8.31294 45.6072C8.10776 44.9317 8 44.2166 8 43.4767V14.5245C8 10.3686 11.4445 7 15.6931 7H45.3048C49.5555 7 53 10.3686 53 14.5245Z" fill="#D2E4FF"/>
<path d="M25.154 27.7307C25.154 27.7307 24.9833 32.9666 24.3126 35.3122L19 39.0122L39 42L34.2312 35.4211C34.2312 35.4211 32.7904 28.4011 33.5465 25.8041C34.3007 23.2074 25.154 27.7307 25.154 27.7307Z" fill="#FFB27D"/>
<path d="M26 28C26 27.9981 27.5377 32.0886 30.4404 31.9985C33.3393 31.9085 34 28.2904 34 28.2904L26 28Z" fill="#ED985F"/>
<path d="M24.0176 26C24.0176 26 23.0464 21.2456 22.3676 19.8056C21.6908 18.3658 21.1241 11.9417 28.6412 11.6091C28.6412 11.6091 31.5247 11.9417 33.1086 11C33.1086 11 33.1086 11.9417 32.7141 12.2738C32.7141 12.2738 35.3133 11.6645 37.3477 13.8799C39.3822 16.095 35.9921 23.8487 36.1623 25.6763L24.0176 26Z" fill="#2C3A64"/>
<path d="M29.9981 30.9996C27.8873 30.9625 24 28.1663 24 24.7032V19.2993C24 18.0347 24.8873 17 25.9705 17H34.0275C35.1127 17 36 18.0347 36 19.2993V24.3973C36 28.0284 32.4219 31.042 29.9981 30.9996Z" fill="#FFB27D"/>
<path d="M23.2663 22C23.2663 22 23.2777 18.96 25.842 18.4925C28.4063 18.0251 34.1473 19.9741 34.96 17.7575C35.7747 15.5408 23.8673 15.579 23.2663 16.993C22.6672 18.4073 23.2663 22 23.2663 22Z" fill="#2C3A64"/>
<path d="M43 51H15.1598C15.1059 51 15.0539 51 15 50.9973C15.705 44.9474 17.217 37.6507 18.4254 37.1705C18.4254 37.1705 18.5632 37.1222 18.8308 37.0435C18.8328 37.0422 18.8368 37.0422 18.8368 37.0422C19.4679 36.855 20.8081 36.5055 22.7535 36.2226C22.7575 36.2226 22.7655 36.2213 22.7675 36.2213C23.3307 36.1391 23.9399 36.0644 24.601 36C24.601 36.0735 26.8899 39.2469 29.6042 39.6031C31.2939 38.9694 32.6201 38.4302 34.4656 36.1036C35.0748 36.1716 35.6999 36.2501 36.3371 36.3444C37.8869 36.5708 39.5227 36.8787 41.2284 37.2872C41.4321 37.3342 41.6339 37.384 41.8396 37.4363H41.8416C41.9215 37.4547 42.0033 37.4757 42.0832 37.4965C42.0832 37.4965 42.1032 37.5763 42.1531 38.0503C42.1531 38.0503 42.1531 38.0503 42.1531 38.0516C42.257 39.1264 42.5067 42.2254 43 51Z" fill="#739AF0"/>
<path d="M18.8574 36.8677C18.8499 36.8693 18.8423 36.8704 18.8367 36.8731C18.7312 36.8956 18.5881 36.9317 18.4092 36.9914C18.3979 36.9953 18.3866 36.9979 18.3772 37.0006C18.3697 37.0047 18.3603 37.0072 18.3528 37.0085C18.3433 37.0126 18.3358 37.0141 18.3358 37.0141C16.8595 37.5043 13.1632 39.3009 8 45.7391C8.90761 48.689 11.6982 50.8671 15.0424 50.9935C15.0914 50.996 15.1441 50.9975 15.1912 50.9975C15.2458 51 15.2966 51 15.3512 51H18.1343H22.7797C22.8625 46.4646 22.919 42.5194 22.9548 39.8151C22.968 38.6206 22.9812 37.6691 22.9887 37.0141C22.9962 36.3574 23 36 23 36C22.9962 36 22.9887 36.0013 22.9868 36.0013C21.5218 36.1688 19.7255 36.6285 18.8574 36.8677Z" fill="#2B478B"/>
<path d="M41.5656 37.1804C41.204 37.0451 40.9576 36.9902 40.8344 36.9687C40.8305 36.9687 40.8285 36.9687 40.8285 36.9675C39.8767 36.7261 37.7247 36.2077 36 36C36 36 36 36 36 36.0012C36 36.0402 36.006 36.8641 36.0159 38.2858V38.287C36.0258 39.1984 36.0358 40.356 36.0477 41.7094C36.0715 44.2295 36.1053 47.4306 36.153 51H41.2656H43.9024C44.0256 51 44.1448 50.9974 44.264 50.9906C47.473 50.8353 50.1436 48.6285 51 45.6512C46.3484 39.5453 43.0261 37.7205 41.5656 37.1804Z" fill="#2B478B"/>
<path d="M34.8086 22.4757C34.6668 23.1548 34.135 23.5893 33.2311 23.7664C32.5418 23.9019 31.886 23.8282 31.8801 23.8267H31.8683C31.1987 23.8267 30.7221 23.4499 30.3696 22.6407C30.3243 22.5348 30.2259 22.2811 30.2003 22.0131C30.2003 22.0127 30.2003 22.0125 30.2003 22.0125C30.2475 22.0303 30.2948 22.0504 30.3401 22.0737C30.3873 22.0976 30.4445 22.0805 30.4701 22.0352C30.4937 21.9903 30.476 21.9347 30.4307 21.9106C30.3539 21.8718 30.2751 21.8418 30.1983 21.8157C30.1983 21.8151 30.1983 21.8149 30.1983 21.8144C30.2101 21.6895 30.2436 21.5702 30.3125 21.467C30.4563 21.2603 30.7359 21.1544 31.1416 21.1544H33.5797C34.011 21.1544 34.3891 21.3073 34.6156 21.573C34.8165 21.8091 34.8834 22.1216 34.8086 22.4757ZM28.7961 22.029C28.7705 22.2908 28.674 22.5374 28.6307 22.6407C28.2782 23.4499 27.8016 23.8267 27.13 23.8267H27.1202C27.1123 23.8282 26.4565 23.9019 25.7692 23.7664C24.8633 23.5893 24.3335 23.1548 24.1898 22.4757C24.1149 22.1216 24.1838 21.8091 24.3827 21.573C24.6092 21.3073 24.9873 21.1544 25.4206 21.1544H27.8567C28.2644 21.1544 28.544 21.2603 28.6858 21.467C28.7606 21.573 28.7941 21.7003 28.8 21.8305C28.8 21.831 28.8 21.8316 28.8 21.8322C28.6779 21.8701 28.5972 21.9034 28.5873 21.9085C28.5381 21.9297 28.5165 21.9845 28.5401 22.0307C28.5558 22.0646 28.5893 22.0845 28.6267 22.0845C28.6405 22.0845 28.6543 22.0818 28.6661 22.0763C28.6681 22.0752 28.7173 22.0549 28.7961 22.0282C28.7961 22.0286 28.7961 22.029 28.7961 22.029ZM34.7397 21.4751C34.4817 21.173 34.0602 21 33.5797 21H31.1416C30.6788 21 30.3539 21.1288 30.1786 21.3809C30.0978 21.4992 30.0565 21.632 30.0407 21.7689C30.0407 21.7693 30.0407 21.7698 30.0407 21.77C29.6331 21.6725 29.2353 21.7225 28.9596 21.789V21.7875C28.9438 21.6441 28.9044 21.5046 28.8197 21.3809C28.6445 21.1288 28.3215 21 27.8567 21H25.4206C24.9401 21 24.5167 21.173 24.2606 21.4751C24.0263 21.7488 23.9495 22.1055 24.0322 22.5067C24.3099 23.8308 25.8972 24 26.6889 24C26.9331 24 27.1024 23.9837 27.134 23.9811C27.8764 23.9797 28.3983 23.5721 28.7784 22.6999C28.8414 22.5522 28.9458 22.2718 28.9615 21.9807V21.9805C29.2234 21.9129 29.6291 21.8523 30.0368 21.9587V21.9591C30.0486 22.2584 30.155 22.5482 30.2219 22.6999C30.602 23.5721 31.1239 23.9797 31.8663 23.9811C31.8978 23.9837 32.0653 24 32.3114 24C33.1031 24 34.6884 23.8308 34.9681 22.5067C35.0508 22.1055 34.972 21.7488 34.7397 21.4751Z" fill="#B64C41"/>
</svg>
