<svg width="44" height="44" viewBox="0 0 44 44" fill="none" xmlns="http://www.w3.org/2000/svg">
<path d="M36.4774 44H7.52413C3.3697 44 0 40.6312 0 36.4763V7.52357C0 3.36834 3.3697 -1.08342e-06 7.52413 -1.08342e-06H36.4774C40.6318 -1.08342e-06 44 3.36834 44 7.52357V36.4763C44 40.6312 40.6318 44 36.4774 44" fill="#E3F0FF"/>
<path d="M38 10.6434V32.3575C38 32.9001 37.924 33.4252 37.7811 33.9218C37.1261 36.1918 35.0865 37.8743 32.6335 37.9929C32.5423 37.9979 32.4511 38 32.3569 38H10.6416C10.6021 38 10.5641 38 10.5246 37.9979C10.4896 37.9979 10.4516 37.997 10.4136 37.9948C7.95303 37.8977 5.89669 36.2232 5.22949 33.9554C5.07903 33.4487 5 32.9124 5 32.3575V10.6434C5 7.52647 7.52596 5 10.6416 5H32.3569C35.4741 5 38 7.52647 38 10.6434Z" fill="#D2E4FF"/>
<path d="M18.6155 20.9276C18.6155 20.9276 18.4875 24.6235 17.9844 26.2792L14 28.891L29 31L25.4234 26.3561C25.4234 26.3561 24.3428 21.4008 24.9099 19.5676C25.4755 17.7346 18.6155 20.9276 18.6155 20.9276Z" fill="#FFB27D"/>
<path d="M18 21C18 20.9986 19.1533 24.0664 21.3303 23.9989C23.5045 23.9314 24 21.2178 24 21.2178L18 21Z" fill="#ED985F"/>
<path d="M17.5132 19C17.5132 19 16.7848 15.5134 16.2757 14.4574C15.7681 13.4016 15.3431 8.69055 20.9809 8.4467C20.9809 8.4467 23.1435 8.69056 24.3315 8C24.3315 8 24.3315 8.69057 24.0356 8.93413C24.0356 8.93413 25.985 8.48727 27.5108 10.112C29.0366 11.7363 26.4941 17.4224 26.6217 18.7626L17.5132 19Z" fill="#2C3A64"/>
<path d="M21.4986 22.9997C19.9155 22.9732 17 20.9759 17 18.5023V14.6424C17 13.7391 17.6655 13 18.4779 13H24.5206C25.3345 13 26 13.7391 26 14.6424V18.2838C26 20.8774 23.3164 23.03 21.4986 22.9997Z" fill="#FFB27D"/>
<path d="M17.1997 16C17.1997 16 17.2083 13.4666 19.1315 13.0771C21.0547 12.6876 25.3604 14.3118 25.97 12.4646C26.5811 10.6173 17.6505 10.6491 17.1997 11.8275C16.7504 13.0061 17.1997 16 17.1997 16Z" fill="#2C3A64"/>
<path d="M32 38H11.1198C11.0794 38 11.0404 38 11 37.9979C11.5288 33.1579 12.6627 27.3206 13.569 26.9364C13.569 26.9364 13.6724 26.8977 13.8731 26.8348C13.8746 26.8338 13.8776 26.8338 13.8776 26.8338C14.351 26.684 15.3561 26.4044 16.8151 26.1781C16.8181 26.1781 16.8241 26.177 16.8256 26.177C17.248 26.1112 17.7049 26.0515 18.2007 26C18.2007 26.0588 19.9174 28.5975 21.9531 28.8825C23.2204 28.3755 24.2151 27.9441 25.5992 26.0829C26.0561 26.1373 26.5249 26.2001 27.0028 26.2755C28.1652 26.4567 29.392 26.703 30.6713 27.0297C30.8241 27.0673 30.9754 27.1072 31.1297 27.149H31.1312C31.1911 27.1637 31.2525 27.1806 31.3124 27.1972C31.3124 27.1972 31.3274 27.261 31.3649 27.6403C31.3649 27.6403 31.3649 27.6403 31.3649 27.6413C31.4428 28.5012 31.63 30.9803 32 38Z" fill="#7BB684"/>
<path d="M13.9621 27.6363C13.9566 27.6375 13.951 27.6383 13.9469 27.6402C13.8696 27.6568 13.7646 27.6832 13.6334 27.727C13.6252 27.7299 13.6169 27.7318 13.61 27.7337C13.6044 27.7368 13.5975 27.7386 13.592 27.7396C13.5851 27.7426 13.5796 27.7437 13.5796 27.7437C12.497 28.1031 9.78634 29.4207 6 34.142C6.66558 36.3053 8.71203 37.9025 11.1645 37.9952C11.2004 37.9971 11.239 37.9982 11.2735 37.9982C11.3136 38 11.3509 38 11.3909 38H13.4318H16.8384C16.8992 34.6741 16.9406 31.7809 16.9669 29.7977C16.9765 28.9218 16.9862 28.224 16.9917 27.7437C16.9972 27.2621 17 27 17 27C16.9972 27 16.9917 27.0009 16.9903 27.0009C15.916 27.1238 14.5987 27.4609 13.9621 27.6363Z" fill="#2B8B35"/>
<path d="M30.0815 27.8656C29.8163 27.7664 29.6356 27.7261 29.5452 27.7104C29.5423 27.7104 29.5409 27.7104 29.5409 27.7095C28.8429 27.5325 27.2648 27.1523 26 27C26 27 26 27 26 27.0009C26 27.0295 26.0044 27.6337 26.0117 28.6763V28.6772C26.019 29.3455 26.0262 30.1944 26.035 31.1869C26.0525 33.035 26.0772 35.3825 26.1122 38H29.8614H31.7951C31.8854 38 31.9728 37.9981 32.0603 37.9931C34.4136 37.8792 36.372 36.2609 37 34.0776C33.5888 29.5999 31.1525 28.2617 30.0815 27.8656Z" fill="#2B8B35"/>
</svg>
