<svg width="16" height="16" viewBox="0 0 16 16" fill="none" xmlns="http://www.w3.org/2000/svg">
<path fill-rule="evenodd" clip-rule="evenodd" d="M15.7992 0.200841C16.0669 0.468629 16.0669 0.902799 15.7992 1.17059L1.17059 15.7992C0.902799 16.0669 0.468629 16.0669 0.200841 15.7992C-0.066947 15.5314 -0.066947 15.0972 0.200841 14.8294L14.8294 0.200841C15.0972 -0.066947 15.5314 -0.066947 15.7992 0.200841Z" fill="#030327"/>
<path fill-rule="evenodd" clip-rule="evenodd" d="M0.20084 0.200841C-0.066946 0.468629 -0.066946 0.902799 0.20084 1.17059L11.1723 12.142C11.4401 12.4098 11.8742 12.4098 12.142 12.142C12.4098 11.8742 12.4098 11.4401 12.142 11.1723L1.17059 0.200841C0.902801 -0.066947 0.46863 -0.066947 0.20084 0.200841ZM13.0008 13.0008C12.7331 13.2686 12.7331 13.7028 13.0008 13.9706L14.8294 15.7992C15.0972 16.0669 15.5314 16.0669 15.7992 15.7992C16.0669 15.5314 16.0669 15.0972 15.7992 14.8294L13.9706 13.0008C13.7028 12.7331 13.2686 12.7331 13.0008 13.0008Z" fill="#030327"/>
</svg>
