<svg width="332" height="226" viewBox="0 0 332 226" fill="none" xmlns="http://www.w3.org/2000/svg">
<path d="M0.188978 185C0.188978 185 -1.8902 194.246 7.74458 196.649C20.923 199.935 98.2783 208.568 79.4858 215.128C68.8775 218.831 84.9012 223.86 136.571 225.711C188.241 227.563 276.902 220.308 247.087 209.574C217.273 198.838 339.075 207.33 331.675 185H0.188978Z" fill="#CFDDF9"/>
<path d="M59.0802 184.838C59.0802 184.838 20.1006 99.9801 48.1518 81.0844C66.9012 68.4544 86.7745 96.2966 110.495 81.5675C131.612 68.4544 102.171 35.4206 137.406 26.7789C174.441 17.6962 204.784 91.255 235.861 81.0844C273.569 68.7429 311.078 93.7961 278.662 185L59.0802 184.838Z" fill="#D4E8FF"/>
<path d="M157.564 3.10928C155.698 2.26289 153.755 1.68398 151.788 1.38837L152.07 0.0615845C154.204 0.381836 156.309 1.00829 158.324 1.92329L157.564 3.10928ZM140.07 3.10928L139.206 1.97432C141.103 0.95372 143.192 0.288574 145.419 0L145.662 1.33205C143.659 1.59247 141.777 2.189 140.07 3.10928ZM166.908 10.0475C165.509 8.57118 164.066 7.26378 162.617 6.16049L163.691 5.16103C165.204 6.31183 166.707 7.67377 168.16 9.20642L166.908 10.0475ZM132.314 11.0769L130.878 10.4804C131.93 8.68733 133.096 7.1019 134.343 5.7681L135.602 6.60216C134.422 7.86206 133.317 9.3683 132.314 11.0769ZM173.777 19.0744C172.723 17.4063 171.648 15.8385 170.579 14.4167L171.932 13.697C173.022 15.147 174.119 16.743 175.19 18.4427L173.777 19.0744ZM128.117 21.1719L126.564 20.8464C127.123 18.9636 127.739 17.1917 128.395 15.5781L129.91 16.0145C129.267 17.5911 128.665 19.3278 128.117 21.1719ZM179.199 28.8633C178.339 27.123 177.471 25.4566 176.621 23.9117L178.074 23.3451C178.933 24.9059 179.808 26.5881 180.677 28.346L179.199 28.8633ZM125.711 31.7825L124.126 31.589C124.449 29.7027 124.806 27.8885 125.184 26.1975L126.759 26.4456C126.384 28.119 126.032 29.9138 125.711 31.7825ZM183.808 38.9742C183.033 37.1565 182.304 35.4954 181.577 33.8959L183.073 33.4155C183.802 35.0238 184.537 36.6937 185.314 38.5202L183.808 38.9742ZM124.254 42.5515L122.659 42.4319C122.859 40.542 123.076 38.7155 123.304 37.0051L124.896 37.1565C124.669 38.8563 124.452 40.6722 124.254 42.5515ZM267.706 44.825C265.723 44.1211 263.715 43.6847 261.739 43.5299L261.888 42.189C264.028 42.3562 266.194 42.826 268.329 43.5827L267.706 44.825ZM250.235 46.4755L249.315 45.3722C251.285 44.2126 253.275 43.3539 255.229 42.819L255.722 44.1018C253.921 44.5945 252.072 45.3933 250.235 46.4755ZM188.003 49.2452C187.207 47.2392 186.551 45.6045 185.936 44.1L187.452 43.6636C188.067 45.1716 188.723 46.8098 189.521 48.8176L188.003 49.2452ZM277.863 50.9239C276.321 49.5936 274.724 48.4217 273.118 47.4363L274.062 46.347C275.74 47.3764 277.403 48.5994 279.008 49.9825L277.863 50.9239ZM59.1883 53.1023C57.1903 52.2647 55.2248 51.7315 53.3467 51.5151L53.5643 50.1795C55.6152 50.4153 57.7474 50.9925 59.9018 51.8952L59.1883 53.1023ZM123.322 53.3838L121.724 53.3047C121.862 51.3444 122 49.5654 122.145 47.8656L123.742 47.9624C123.598 49.6569 123.461 51.4306 123.322 53.3838ZM241.202 53.9135L239.959 53.0653C241.46 51.5063 242.883 50.1637 244.309 48.9636L245.441 49.9156C244.056 51.084 242.669 52.3914 241.202 53.9135ZM41.9158 54.3252L40.9445 53.2554C42.857 52.0271 44.847 51.1421 46.8599 50.623L47.3284 51.9128C45.4977 52.3826 43.6766 53.1956 41.9158 54.3252ZM285.558 59.4071C284.411 57.8304 283.208 56.34 281.981 54.9763L283.259 54.1634C284.516 55.5623 285.748 57.0896 286.923 58.7014L285.558 59.4071ZM69.2656 59.4634C67.6291 58.1225 66.0197 56.9383 64.4824 55.9423L65.459 54.8742C67.0451 55.9019 68.7018 57.1213 70.3828 58.4991L69.2656 59.4634ZM192.108 59.5584C191.374 57.7477 190.653 55.9353 190.047 54.4009L191.565 53.9751C192.171 55.506 192.89 57.3166 193.624 59.122L192.108 59.5584ZM33.6944 62.2999L32.3448 61.5749C33.6033 59.9156 34.9007 58.4182 36.2012 57.1231L37.4243 57.9923C36.1697 59.2417 34.9148 60.6916 33.6944 62.2999ZM233.713 62.68L232.377 61.9374C233.715 60.2341 234.912 58.7595 236.036 57.4328L237.34 58.214C236.228 59.5285 235.041 60.989 233.713 62.68ZM122.634 64.2424L121.035 64.1744C121.143 62.3738 121.25 60.5737 121.364 58.7402L122.963 58.8105C122.849 60.6423 122.742 62.4424 122.634 64.2424ZM77.8031 67.4959C76.3503 65.9781 74.9977 64.6274 73.6683 63.3661L74.8663 62.4724C76.2125 63.7492 77.5811 65.116 79.0502 66.6506L77.8031 67.4959ZM291.375 68.9668C290.512 67.2792 289.601 65.6399 288.665 64.0942L290.094 63.4829C291.044 65.0544 291.971 66.7206 292.845 68.4351L291.375 68.9668ZM196.539 69.8072C195.814 68.2762 195.062 66.6057 194.246 64.7006L195.752 64.2434C196.563 66.1343 197.306 67.791 198.025 69.3082L196.539 69.8072ZM226.69 71.8002L225.352 71.0597C226.489 69.6038 227.667 68.0613 228.856 66.503L230.203 67.2315C229.01 68.7937 227.833 70.3376 226.69 71.8002ZM27.7527 71.8004L26.2876 71.2563C27.1669 69.5809 28.1035 67.9357 29.0989 66.327L30.5186 66.9499C29.5395 68.5329 28.6177 70.1516 27.7527 71.8004ZM121.923 75.1178L120.325 75.0307C120.446 73.4518 120.569 71.6774 120.702 69.6057L122.301 69.6782C122.168 71.7548 122.044 73.534 121.923 75.1178ZM85.5992 76.1194C84.1343 74.4344 82.9133 73.0511 81.7567 71.766L83.0334 70.9526C84.1953 72.2436 85.421 73.6325 86.8917 75.3237L85.5992 76.1194ZM295.776 79.083C295.13 77.3369 294.442 75.6181 293.729 73.9742L295.233 73.5125C295.954 75.1766 296.652 76.9161 297.304 78.6828L295.776 79.083ZM202.254 79.6795C201.218 78.3342 200.191 76.7499 199.115 74.8361L200.562 74.2596C201.608 76.1188 202.601 77.6518 203.6 78.9466L202.254 79.6795ZM218.923 80.6061L217.746 79.692C218.961 78.5853 220.261 77.2204 221.725 75.5188L223.021 76.3091C221.521 78.0543 220.179 79.4599 218.923 80.6061ZM23.3072 81.8908L21.7759 81.4968C22.4122 79.7458 23.1102 78.0045 23.8506 76.3209L25.3524 76.7886C24.6225 78.4479 23.9344 80.1646 23.3072 81.8908ZM210.445 84.7942C209.196 84.7942 207.974 84.4808 206.808 83.8625L207.663 82.7224C209.414 83.6529 211.137 83.655 212.997 82.9128L213.685 84.1292C212.585 84.5706 211.495 84.7942 210.445 84.7942ZM93.2092 84.9052C91.9075 83.4259 90.5574 81.8621 89.3941 80.5127L90.6904 79.7214C91.8515 81.0684 93.1989 82.6288 94.4961 84.1034L93.2092 84.9052ZM120.76 86.0004L119.172 85.8285C119.417 84.2199 119.638 82.4586 119.845 80.4435L121.441 80.5598C121.231 82.5936 121.009 84.3733 120.76 86.0004ZM299.064 89.5129C298.59 87.733 298.079 85.9686 297.544 84.2684L299.092 83.9237C299.633 85.6403 300.148 87.4217 300.627 89.2181L299.064 89.5129ZM20.2263 92.3478L18.6544 92.0911C19.0692 90.2924 19.5386 88.499 20.0495 86.7604L21.6041 87.084C21.0995 88.8004 20.636 90.5714 20.2263 92.3478ZM101.299 93.453C100.023 92.2575 98.6598 90.8817 97.1311 89.2468L98.3895 88.4134C99.8967 90.0253 101.238 91.3791 102.49 92.5526L101.299 93.453ZM117.618 96.7314L116.192 96.1185C116.925 94.9105 117.573 93.2341 118.118 91.1361L119.682 91.424C119.1 93.6659 118.425 95.402 117.618 96.7314ZM112.062 99.9375C109.837 99.6422 108.228 98.7898 105.999 97.3179L107.01 96.2737C108.964 97.5598 110.374 98.3313 112.233 98.5975L112.062 99.9375ZM301.446 100.128C301.113 98.3293 300.746 96.5377 300.358 94.8027L301.931 94.5533C302.324 96.3022 302.692 98.1078 303.027 99.92L301.446 100.128ZM18.3771 103.019L16.7838 102.884C17.0014 101.062 17.2665 99.2406 17.5721 97.4708L19.1568 97.6645C18.8545 99.4148 18.5924 101.216 18.3771 103.019ZM303.061 110.852C302.847 109.043 302.605 107.235 302.342 105.48L303.931 105.311C304.197 107.078 304.44 108.897 304.656 110.719L303.061 110.852ZM17.6163 113.793L16.0153 113.765C16.0598 111.936 16.1459 110.103 16.2709 108.319L17.8694 108.399C17.7455 110.166 17.6603 111.98 17.6163 113.793ZM304.018 121.638C303.909 119.827 303.774 118.011 303.618 116.239L305.215 116.139C305.372 117.922 305.507 119.749 305.618 121.569L304.018 121.638ZM16.2093 124.658C16.1033 122.834 16.0325 121.003 16 119.215L17.6011 119.194C17.6336 120.966 17.7033 122.783 17.8086 124.593L16.2093 124.658ZM304.397 132.453C304.379 130.641 304.339 128.821 304.276 127.043L305.877 127.003C305.939 128.79 305.98 130.62 306 132.441L304.397 132.453ZM17.2469 135.516C17.0081 133.702 16.8002 131.878 16.6292 130.094L18.2253 129.986C18.3952 131.756 18.6013 133.567 18.8385 135.367L17.2469 135.516ZM305.865 143.317L304.264 143.277C304.325 141.466 304.369 139.645 304.393 137.866L305.992 137.88C305.97 139.667 305.927 141.497 305.865 143.317ZM19.0301 146.301C18.674 144.506 18.3444 142.695 18.0503 140.919L19.6364 140.734C19.9285 142.497 20.256 144.296 20.6096 146.08L19.0301 146.301ZM305.265 154.178L303.667 154.093C303.802 152.289 303.921 150.47 304.02 148.687L305.62 148.75C305.52 150.541 305.402 152.367 305.265 154.178ZM21.4857 156.99C21.0234 155.216 20.5832 153.423 20.1778 151.659L21.7499 151.403C22.1528 153.156 22.5902 154.938 23.0498 156.701L21.4857 156.99ZM304.246 165.016L302.653 164.888C302.855 163.084 303.041 161.269 303.21 159.494L304.807 159.6C304.637 161.383 304.45 163.204 304.246 165.016ZM24.5646 167.564C24.004 165.822 23.4606 164.049 22.9491 162.293L24.5044 161.972C25.0129 163.718 25.5531 165.481 26.1102 167.211L24.5646 167.564ZM302.843 175.82L301.254 175.655C301.517 173.858 301.767 172.048 301.999 170.275L303.59 170.423C303.358 172.2 303.109 174.017 302.843 175.82ZM28.2576 178C27.6029 176.312 26.9552 174.563 26.3324 172.8L27.8672 172.417C28.4861 174.167 29.1294 175.906 29.7798 177.582L28.2576 178Z" fill="#DCE6FF"/>
<path d="M313.398 146.679C300.121 145.017 301.324 169.99 282.397 169.99C265.092 169.99 255.832 114.197 236.843 125.544C160.501 171.164 219.899 93.5336 168.567 92.0164C145.356 91.3301 129.889 112.227 124.186 149.224C115.918 182.671 96.7442 123.713 77.0121 129.195C64.4713 132.679 65.9075 169.99 48.6032 169.99C29.6768 169.99 30.9235 148.991 17.6459 150.653C3.35006 152.441 0 185 0 185H331C331 185 327.694 148.469 313.398 146.679Z" fill="#EEF7FF"/>
<path d="M300.892 172.932C288.657 172.225 290.654 178.613 273.215 178.613C257.27 178.613 257.708 164.297 247.036 161.253C227.387 155.65 211.187 184.01 203.569 169.776C189.1 132.01 146.9 113.071 127.431 169.776C119.813 184.01 101.998 158.613 83.9629 161.253C72.862 162.879 73.7307 178.613 57.7855 178.613C40.3457 178.613 42.3423 172.225 30.1073 172.932C16.9346 173.694 13 185 13 185H318C318 185 314.065 173.694 300.892 172.932Z" fill="#DCE6FF"/>
<path d="M192.392 125.811L191.474 136.54H125.22L125.162 166.329L44.234 166.379L44 193.575L47.8656 197H283V128.218L279.369 125L192.392 125.811Z" fill="#23659B"/>
<path d="M40 163L47 169.465V197L40 190.534V163Z" fill="#1D3F70"/>
<path d="M121 133L127 139.385V169L121 162.615V133Z" fill="#1D3F70"/>
<path d="M187 121L194 127.444V139L187 132.557V121Z" fill="#1D3F70"/>
<path d="M274.75 122L282 128H194.25L187 122H274.75Z" fill="#3A72AA"/>
<path d="M121 133L128.211 139H194L186.789 133H121Z" fill="#3A72AA"/>
<path d="M40 163L47.2426 169H128L120.758 163H40Z" fill="#3A72AA"/>
<path d="M202.974 68.2622C203.252 68.62 202.43 69.0413 202.215 69.3409C202.994 69.3368 203.688 69.2005 203.693 69.2036C204.553 68.8385 205.389 68.4359 206.203 68C207.641 67.9907 207.204 70.7453 204.31 71.5224C203.269 71.8032 202.254 72.1507 200.552 71.9302C199.994 71.8573 199.838 70.5383 200.18 70.1721C200.779 69.7778 202.56 67.9272 202.974 68.2622Z" fill="#F99370"/>
<path d="M129.494 84.0143C129.698 84.4659 130.703 84.0321 131.187 84.1668C130.689 84.7709 130.041 85.187 130.041 85.1918C129.105 85.6221 128.144 86.0063 127.162 86.3539C126.237 87.4675 129.453 88.9381 132.124 87.1979C133.085 86.5714 134.1 86.011 134.947 84.5404C135.224 84.0592 134.357 83 133.748 83C132.795 83 129.399 83.4717 129.494 84.0143Z" fill="#E57D61"/>
<path d="M172.817 67.3726C177.442 69.3598 182.247 71.6313 187.409 71.9327C190.427 71.888 193.46 71.2168 196.362 70.4206C197.568 70.0863 198.777 69.7099 199.962 69.3164C201.594 68.7308 202.806 70.9457 201.344 71.8077C197.302 74.3464 192.68 76.2915 187.798 76.9219C184.226 77.2483 180.737 76.5047 177.387 75.5664C174.775 74.807 172.25 73.8871 169.808 72.7579C165.939 70.8944 168.908 65.5525 172.817 67.3726Z" fill="#F99370"/>
<path d="M201 72.4278C201 72.4278 200.627 72.6967 199.956 73.1188C197.558 74.6223 191.341 78.0565 184.698 77.9993C181.481 77.9725 178.633 77.6794 176.335 77.3241C175.993 77.2706 175.662 77.2171 175.343 77.1611C174.71 77.0517 174.129 76.9397 173.6 76.8303C173.134 76.7342 172.715 76.6405 172.341 76.5505C171.007 76.2354 170.265 75.9933 170.265 75.9933C171.646 70.8087 170.699 67.7225 169.866 66.1946C169.432 65.3978 169.028 65.0243 169 65.0012C169 65 169 65 169 65C169.003 65.0012 169.007 65.0012 169.01 65.0024C169.017 65.0049 169.022 65.0073 169.028 65.0097C169.13 65.0426 169.476 65.1606 170.018 65.3516C171.595 65.9111 174.815 67.1021 178.315 68.6823C182.01 70.3513 187.65 72.6419 198.38 70.2965C198.769 70.2114 199.167 70.1214 199.573 70.0265C199.573 70.0265 199.359 71.4242 201 72.4278Z" fill="#3A72AA"/>
<path d="M201.327 124.703L192.547 125C192.146 125.013 191.818 124.709 191.823 124.335C191.826 124.153 191.841 123.938 191.877 123.694C191.977 123.005 192.004 122.308 191.963 121.614C191.944 121.282 191.911 120.95 191.861 120.621L191.007 114.874C190.95 114.49 191.26 114.146 191.674 114.13L195.548 114C195.969 113.987 196.305 114.32 196.269 114.711L195.766 119.99C195.656 121.145 196.49 122.191 197.702 122.431C198.567 122.601 199.442 122.69 200.07 122.82C200.15 122.837 200.231 122.854 200.309 122.872H200.311C200.978 123.026 201.531 123.239 201.863 123.662C202.196 124.085 201.887 124.684 201.327 124.703Z" fill="#F99370"/>
<path d="M192.062 124.061C192.102 124.516 192.343 125.029 192.861 124.999L202.318 124.649C202.807 124.632 203.136 124.12 202.945 123.659C202.541 122.618 201.182 121.093 196.705 121C196.065 121.087 194.608 121.365 192.48 121.149C192.48 121.149 191.795 122.344 192.062 124.061Z" fill="#EB5648"/>
<path d="M202.944 123L192 123.593C192.053 124.091 192.156 124.572 192.335 125L202.314 124.46C202.798 124.435 203.129 123.7 202.952 123.023C202.95 123.017 202.947 123.008 202.944 123Z" fill="#CE3932"/>
<path d="M198.949 118.237C198.994 119.334 199 119.984 199 119.984C199 119.984 194.485 121.747 189.834 120.629C189.486 120.546 189.138 120.446 188.792 120.329C188.662 119.862 188.538 119.332 188.417 118.755C187.388 113.853 186.534 105.539 183.328 103.355C180.003 101.22 173.845 101.511 170.042 101.349C169.935 101.344 169.829 101.34 169.727 101.334C164.029 101.038 159.568 97.3685 156.029 91.7555C155.506 90.9287 162.146 90.1455 162.146 90.1455L177.5 89C181.452 89.8815 188.43 91.1441 192.926 95.5045C197.738 100.171 198.74 113.45 198.949 118.237Z" fill="#1D3F70"/>
<path d="M190 120C189.648 119.917 189.297 119.814 188.946 119.696C187.697 115.195 187.046 104.949 183.426 102.472C180.065 100.305 173.843 100.6 170 100.436L171.25 98C171.25 98 181.798 98.1087 185.306 102.316C188.814 106.521 190 120 190 120Z" fill="#103663"/>
<path d="M168.233 137.996L159.613 137.138C159.219 137.099 158.946 136.774 159.009 136.428C159.041 136.261 159.087 136.063 159.161 135.842C159.365 135.218 159.5 134.576 159.568 133.928C159.601 133.618 159.678 130.499 159.681 130.188C159.681 130.188 164.124 129.792 164.026 130.15L163.709 134.354C164.11 135.301 163.899 135.046 165.047 135.424C165.864 135.694 166.704 135.89 167.297 136.09C167.373 136.116 167.45 136.142 167.524 136.17H167.525C168.151 136.399 168.66 136.667 168.919 137.102C169.177 137.536 168.783 138.051 168.233 137.996Z" fill="#F99370"/>
<path d="M159.002 136.276C158.979 136.647 159.13 137.085 159.606 137.125L168.277 137.996C168.724 138.042 169.092 137.672 168.98 137.281C168.749 136.399 167.712 135.014 163.641 134.395C163.046 134.387 161.683 134.432 159.77 134C159.77 134 158.987 134.873 159.002 136.276Z" fill="#EB5648"/>
<path d="M168.98 137.166L159 136C159.003 136.321 159.054 136.639 159.177 136.935L168.277 137.996C168.718 138.048 169.083 137.632 168.984 137.182C168.982 137.176 168.981 137.171 168.98 137.166Z" fill="#CE3932"/>
<path d="M169.34 63.9489C169.685 62.1592 169.676 59.5099 169.555 58.4129C169.351 56.2449 166.361 56.7132 166.657 58.8564C166.757 58.799 166.71 62.6796 166.406 63.7219C164.582 64.1197 169.415 67.6378 170.804 66.8982C171.679 66.4312 169.34 63.9489 169.34 63.9489Z" fill="#F99370"/>
<path d="M166.074 59.6638C166.076 59.6876 166.076 59.7128 166.079 59.7366C166.08 59.7706 166.085 59.8032 166.089 59.8359C166.184 59.7944 166.181 61.8593 166 63.3422C167.574 64.1214 169.45 64.0058 169.793 63.9769C170.061 62.416 170.014 60.4467 169.953 59.7065C169.929 59.533 169.909 59.43 169.906 59.4086C169.897 59.3621 169.889 59.3144 169.875 59.2691C169.749 58.7878 169.375 58.3982 168.886 58.182C168.884 58.182 168.884 58.182 168.884 58.182C168.544 58.0325 168.15 57.9684 167.74 58.0149C167.337 58.0601 166.979 58.2084 166.699 58.4246C166.687 58.4334 166.675 58.4435 166.665 58.451C166.286 58.7602 166.058 59.195 166.074 59.6638Z" fill="#E57D61"/>
<path d="M164 56C164 56 164.037 54.2242 164.73 53L166 53.497L164 56Z" fill="#8E4A35"/>
<path d="M170.926 88C171.287 96.8307 170.246 109.223 169.486 114.995C168.744 120.636 167.461 128.144 166.877 131.49H166.876C166.686 132.579 166.57 133.226 166.57 133.226C166.57 133.226 162.005 135.27 157.67 132.715C157.67 132.715 157.693 132.072 157.723 130.987C157.817 127.526 157.975 119.556 157.625 113.614C157.285 107.817 153.12 97.8272 156.023 90.7798L170.926 88Z" fill="#1D3F70"/>
<path d="M163.417 61.6246C165.254 63.1706 168.138 63.4022 170.216 62.3753H170.217C170.372 62.2926 170.518 62.2023 170.658 62.1017H170.66C177.232 56.3871 168.296 47.0397 164.225 55.2025C162.849 57.5005 160.451 58.7336 163.417 61.6246Z" fill="#F99370"/>
<path d="M164.055 56.7267C163.929 56.4804 164.027 56.1781 164.273 56.055C164.518 55.929 164.82 56.027 164.945 56.2733C165.071 56.5196 164.973 56.8191 164.727 56.945C164.482 57.071 164.18 56.973 164.055 56.7267Z" fill="#C16256"/>
<path d="M165.083 58.992C165.322 59.0085 165.568 59.0002 165.778 58.9602C165.858 58.9451 165.904 58.8927 165.877 58.843C165.851 58.7947 165.762 58.7685 165.681 58.7837C165.162 58.883 164.421 58.7271 164.32 58.5864C164.283 58.5368 164.396 58.4871 164.495 58.454C165.378 58.1671 165.966 57.1657 165.991 57.1243C166.019 57.0746 165.978 57.0222 165.895 57.0057C165.812 56.9877 165.725 57.0139 165.697 57.0622C165.693 57.0719 165.122 58.0374 164.348 58.2899C163.925 58.4278 163.987 58.5947 164.033 58.6595C164.155 58.8292 164.61 58.9589 165.083 58.992Z" fill="#C16256"/>
<path d="M165 54.5695C166.187 53.9451 168.339 54.5121 169.395 54.5036C169.395 54.5036 169.171 56.3083 170.996 57.5926C171.15 59.2519 171.424 59.9753 169.718 62H169.719C169.847 61.9206 169.968 61.8338 170.085 61.7373H170.086C175.337 56.505 168.491 47.579 165 54.5695Z" fill="#E57D61"/>
<path d="M163.335 51.4152C164.075 50.0303 166.267 49.2774 168.163 50.9876C169.622 52.3043 171.196 52.2942 171.164 53.6816C174.091 54.9415 172.64 58 172.64 58L171.174 57.836C169.498 56.5496 169.549 54.659 169.549 54.659C169.175 54.6767 168.782 54.6615 168.434 54.577C167.354 54.316 165.757 54.1898 164.54 54.6149C163.323 55.0412 162.51 52.9627 163.335 51.4152Z" fill="#8E4A35"/>
<path d="M173.967 57.7508C173.828 58.5665 173.282 59.1171 172.748 58.9787C172.214 58.8404 171.893 58.0664 172.033 57.2507C172.172 56.4335 172.718 55.8829 173.252 56.0213C173.787 56.1596 174.107 56.9336 173.967 57.7508Z" fill="#F99370"/>
<path d="M172.05 58.0582C172.07 58.0527 172.558 57.9043 172.832 58.1039C172.902 58.1543 172.948 58.223 172.974 58.3063C172.975 58.3072 172.975 58.3072 172.975 58.3072C172.977 58.3155 172.981 58.3219 172.983 58.3301V58.331C173.023 58.4867 172.993 58.6955 172.891 58.9556C172.881 58.9849 172.845 59.0032 172.807 58.9995C172.803 58.9986 172.798 58.9986 172.793 58.9968C172.751 58.9876 172.728 58.9528 172.741 58.9199C172.823 58.7092 172.853 58.5371 172.836 58.408C172.382 58.4721 172.155 58.8722 172.153 58.8759C172.139 58.9025 172.105 58.9171 172.071 58.9135C172.063 58.9125 172.056 58.9116 172.049 58.9089C172.01 58.8961 171.991 58.8594 172.007 58.8283C172.019 58.8081 172.266 58.3604 172.799 58.2834C172.781 58.2477 172.757 58.2175 172.725 58.1946C172.523 58.0481 172.111 58.1726 172.108 58.1735C172.067 58.1864 172.021 58.1708 172.005 58.1387C171.99 58.1067 172.01 58.071 172.05 58.0582Z" fill="#C16256"/>
<path d="M176.756 88.562C176.756 88.562 171.056 93.7553 156 91.3762C156 91.3762 156.202 86.1715 156.44 81.1308C156.462 80.6983 156.482 80.267 156.503 79.8382C156.503 79.8369 156.503 79.837 156.503 79.837C156.696 75.9095 156.903 72.3701 157.047 71.8676C158.479 66.799 162.955 64.8791 164.97 64.2583C165.586 64.0687 165.971 64 165.971 64C165.971 65.2557 168.27 66.0776 169.066 65.5343C169.728 65.0814 169.485 64.2697 169.472 64.2252C169.472 64.2239 169.472 64.2239 169.472 64.2239C169.475 64.2252 169.479 64.2252 169.481 64.2265C169.488 64.229 169.492 64.2316 169.498 64.2341C169.817 64.3639 170.121 64.5127 170.411 64.6807C172.443 65.8613 173.781 67.9898 174.515 71.0406C174.776 72.1233 174.961 73.3205 175.074 74.6322C175.094 74.8599 175.113 75.0927 175.128 75.3281C175.16 75.8205 175.233 76.3612 175.332 76.9349C175.333 76.94 175.333 76.9426 175.333 76.9426C175.958 80.5494 177.621 85.5188 176.756 88.562Z" fill="#3A72AA"/>
<path d="M167.842 56.9997C167.869 57.0009 167.895 56.9985 167.92 56.9901C167.99 56.9673 168.02 56.9109 167.986 56.8641C167.967 56.8341 167.47 56.1525 166.166 56.0013C166.09 55.9929 166.015 56.0277 166.002 56.0793C165.988 56.1321 166.04 56.1813 166.118 56.1897C167.273 56.3229 167.712 56.9205 167.732 56.9457C167.753 56.9769 167.796 56.9961 167.842 56.9997Z" fill="#C16256"/>
<path d="M155.259 71.5322C151.615 74.7107 147.95 76.644 144.633 78.3837C142.028 79.75 139.405 81.2012 136.582 82.2178C135.408 82.6386 134.201 83.0295 133.001 83.3955C131.32 83.8675 131.907 86.1643 133.646 85.9907C138.567 85.6235 143.775 84.7168 148.001 82.4426C151.394 80.6179 155.548 78.6909 158.017 76.5003C160.339 74.4409 162.589 71.1451 163.715 68.9658C165.452 65.4576 158.829 66.8464 155.259 71.5322Z" fill="#E57D61"/>
<path d="M166 64.0006C166 64.0006 165.876 64.4832 165.569 65.3431C164.846 67.3671 163.114 71.4831 159.624 76.3537C158.648 77.7142 157.401 78.9206 155.968 79.9769C150.44 84.0544 142.142 85.9295 136.009 85.9988C135.618 86.0026 135.226 85.9975 134.838 85.9834C134.838 85.9834 135.269 84.2135 134 83.1431C134 83.1431 134.355 82.9865 134.937 82.7183C137.036 81.7455 142.097 79.3082 144.218 77.419C146.84 75.0831 153.93 64.6385 164.872 64.0289C164.939 64.025 165.006 64.0212 165.073 64.0173C165.38 64.0032 165.689 63.9981 166 64.0006Z" fill="#3A72AA"/>
<path d="M198.951 117C198.995 118.588 199 119.529 199 119.529C199 119.529 194.733 122.081 190.339 120.462C190.01 120.343 189.681 120.197 189.354 120.028C189.231 119.352 189.114 118.586 189 117.75C189 117.75 194.037 119.617 198.95 117H198.951Z" fill="#103663"/>
<path d="M167 130.667C166.815 132.113 166.701 132.973 166.701 132.973C166.701 132.973 162.238 135.686 158 132.294C158 132.294 158.023 131.441 158.052 130C158.052 130 161.161 132.9 167 130.667Z" fill="#103663"/>
<path d="M135.379 82C134.521 82.327 134 82.5179 134 82.5179C135.866 83.8228 135.232 85.9789 135.232 85.9789C135.805 85.9977 136.382 86.0039 136.957 85.9977C136.966 85.9491 137.39 83.2658 135.379 82Z" fill="#23659B"/>
<path d="M201 72.3306C201 72.3306 200.578 72.5915 199.817 73C197.642 71.8383 198.026 70.2999 198.026 70.2999L198.031 70.2621C198.472 70.1794 198.922 70.0921 199.383 70C199.383 70 199.14 71.3565 201 72.3306Z" fill="#23659B"/>
<path d="M165.502 59C165.248 59 165.07 58.9525 165.066 58.9511C165.018 58.9385 164.991 58.8897 165.003 58.8408C165.017 58.7933 165.065 58.7654 165.112 58.7779C165.158 58.7905 166.264 59.081 166.835 58.0461C166.858 58.0028 166.912 57.9874 166.955 58.0111C166.997 58.0349 167.012 58.0908 166.989 58.1341C166.586 58.8631 165.934 59 165.502 59Z" fill="#C16256"/>
<path d="M162 72C161.917 72.1895 159.426 77.8216 156 81C156.023 80.5297 156.044 80.0609 156.067 79.5947C156.069 79.5934 156.069 79.5934 156.069 79.5934C156.069 79.5934 159.641 75.9654 162 72Z" fill="#23659B"/>
<path d="M177 77C176.636 76.9449 176.285 76.8897 175.946 76.8321C175.946 76.8321 175.946 76.8296 175.944 76.8246C175.937 76.7356 175.847 75.8697 175.647 74.5614V74.5564C175.497 73.5777 175.288 72.3521 175.005 71.0213C175.005 71.0201 175.005 71.0201 175.005 71.0188L175 71C175 71 175.957 73.5601 177 77Z" fill="#23659B"/>
<path d="M170 63.7003C170 63.7349 170 63.7696 169.999 63.8057C169.995 64.1066 169.963 64.4346 169.873 64.743C169.669 65.4486 169.167 66.0534 168.033 65.9963C166.783 65.9346 166.036 65.2635 165.598 64.5745C165.287 64.0915 165.131 63.6011 165.057 63.3062C165.017 63.1482 165.001 63.0474 165 63.0338C165 63.0323 165 63.0323 165 63.0323L165.172 63.0203C165.435 63.0038 165.7 62.9977 165.967 63.0007C165.967 64.4857 168.055 65.4576 168.777 64.8152C169.378 64.2796 169.158 63.3197 169.146 63.267C169.145 63.267 169.146 63.2655 169.146 63.2655C169.148 63.2671 169.152 63.2671 169.154 63.2686C169.213 63.2987 169.515 63.4476 170 63.7003Z" fill="#23659B"/>
<path d="M131 84.0047C131 84.0047 128.327 83.8744 126.694 84.9823C125.063 86.089 124 87.9319 124 87.9319C124 87.9319 125.839 88.2529 126.003 89C126.003 89 128.15 87.5349 128.899 86.5488C129.646 85.5616 131 84.0047 131 84.0047Z" fill="#F99370"/>
<path d="M97.7828 83.0546C97.7828 83.0546 94.0325 79.7198 88.875 84.9104C83.7173 90.0997 86.9359 90.0936 78.8115 92.7384C72.0534 94.9392 70.0611 101.675 78.9993 103.64C87.5444 105.517 92.98 99.4325 98.0932 99.7444C103.207 100.055 103.83 90.3309 102.201 87.8782C100.573 85.4254 97.7828 83.0546 97.7828 83.0546Z" fill="#C92828"/>
<path d="M100.186 103.814C105.691 104.377 111.572 103.727 116.383 100.983C121.634 97.7088 125.986 92.9185 127.947 87.2846C128.218 86.5515 127.402 85.799 126.621 86.0489C126.596 86.0763 125.535 86.3237 125.538 86.3823C125.199 86.8406 124.841 87.2859 124.465 87.7208C119.624 93.2245 112.642 97.77 104.679 97.2023C103.491 97.1801 102.298 97.0955 101.122 96.9549C96.2887 96.4718 95.3643 103.154 100.186 103.814Z" fill="#F99370"/>
<path d="M115 100.882C115 100.882 114.974 101.422 114.65 102.027C114.65 102.027 114.65 102.027 114.648 102.027C113.422 103.946 108.68 105.043 104.279 104.999C103.815 104.994 103.355 104.977 102.903 104.949C102.321 104.908 101.753 104.848 101.209 104.765C100.932 102.623 99.2719 97.4334 99 95.3108C100.492 95.1318 103.067 95.7118 105.569 95.8894C108.127 96.2647 110.206 94.3655 111.927 95.2263C111.927 95.2263 111.757 99.2882 115 100.882Z" fill="#9358E0"/>
<path d="M64.3552 144.07C64.3552 144.07 67.0368 143.648 69.2126 143L70 148L64.9219 147.732C64.9219 147.732 63.3037 146.379 64.3552 144.07Z" fill="#F99370"/>
<path d="M95 163.26L95.4565 160L100 160.042C100 160.042 99.4009 161.466 98.8391 163.301C98.8391 163.301 96.8771 164.901 95 163.26Z" fill="#F99370"/>
<path d="M99 83.1661C103.356 81.7795 103.226 89.4881 102.803 91L99 83.1661Z" fill="#C92828"/>
<path d="M60.9778 143.14C60.6229 143.225 60.2877 143.354 60 143.546L61.7542 152.456C61.8395 152.889 62.4182 153.133 62.8857 152.924C62.8912 152.921 62.8968 152.918 62.9023 152.915C63.9708 152.432 65.4315 151.017 64.8792 146.889C64.8792 146.889 64.0998 145.559 64.152 143.195C64.152 143.195 62.4158 142.796 60.9778 143.14Z" fill="#1D3F70"/>
<path d="M64 152.923L61.3476 144C60.8585 144.078 60.3965 144.195 60 144.37L62.4177 152.504C62.5353 152.899 63.3328 153.122 63.9771 152.93L64 152.923Z" fill="#395B96"/>
<path d="M94.0191 164.91C94.0525 165.253 94.133 165.587 94.2823 165.888L103.344 166C103.784 166.006 104.108 165.52 103.966 165.05C103.965 165.045 103.963 165.039 103.961 165.033C103.634 163.956 102.441 162.339 98.2797 162.047C98.2797 162.047 96.8541 162.506 94.5226 162C94.5226 162 93.8824 163.52 94.0191 164.91Z" fill="#1D3F70"/>
<path d="M103.961 165.113L94 165C94.0334 165.315 94.1141 165.621 94.2637 165.897L103.342 166C103.784 166.006 104.108 165.56 103.966 165.128L103.961 165.113Z" fill="#395B96"/>
<path d="M67.9542 147.556C68.3831 147.636 68.8617 147.705 69.3838 147.764C69.3838 147.764 69.3854 147.764 69.3871 147.766C76.019 148.521 89.6011 147.586 94.471 142.954V142.952C95.136 142.337 95.7511 141.693 96.3181 141.028C100.616 135.984 102.223 129.569 102.759 123.153C102.945 120.931 103.003 118.711 103 116.545C102.057 111.636 96.9687 110.2 92.958 111.4C89.8147 112.338 87.3314 114.895 88.0205 118.665V118.649C89.2252 121.705 89.4693 124.547 88.9313 127.137C87.3684 134.643 79.2314 140.011 68.8617 142.178C68.3013 142.294 67.7343 142.402 67.1625 142.5C67.1625 142.5 66.4669 145.375 67.9542 147.556Z" fill="#E8C0A6"/>
<path d="M94 115L101.256 126L101.503 125.871C101.616 124.965 101.707 124.04 101.777 123.093C101.826 122.468 101.865 121.835 101.896 121.191C101.965 119.81 101.998 118.39 102 116.928L99.5153 116.276L94 115Z" fill="#D1A68F"/>
<path d="M92.9694 145C92.9694 145 94.8252 143.602 95.7581 142.282C98.3973 138.544 98.5335 138.254 100 133.938L98.3048 125.562L88.4168 125C88.4971 126.808 88.8481 127.595 88 130.101C88 130.101 93.1963 134.07 92.9694 145Z" fill="#D1A68F"/>
<path d="M85.7019 125.195C86.6396 126.151 87.6389 126.997 88.4894 127.906C92.6567 132.36 94.9798 136.953 95.9818 141.709C97.1499 147.237 96.5324 152.985 94.9586 158.986C94.8349 159.458 94.7062 159.928 94.571 160.402C94.571 160.402 98.4289 161.525 100.578 160.693C100.806 160.274 101.029 159.858 101.245 159.446V159.443C107.668 147.264 109.562 137.771 102.515 123.948C101.128 121.23 99.3965 118.342 97.2835 115.233C95.8026 113.66 94.1766 112.711 92.5736 112.269C85.8648 110.419 79.0925 118.469 85.7019 125.195Z" fill="#E8C0A6"/>
<path d="M102.165 116.873C102.235 117.754 102.235 118.18 102.235 118.18C89.821 120.454 83.0519 117.279 83.0519 117.279C82.9771 117.302 82.9857 116.901 83.0616 116.204C83.2147 114.804 83.6371 112.213 84.2066 109.463C84.3082 108.974 84.4147 108.481 84.5249 107.986C85.2963 104.53 86.2626 101.118 87.1833 99.7594C89.0458 94.9783 95.4073 94.1804 99.4409 95.6916C100.07 95.9025 103.152 100.829 103.799 102.745C104.89 105.98 101.163 108.429 101.627 112.515C101.939 114.5 102.092 115.939 102.165 116.873Z" fill="#9358E0"/>
<path d="M95.2876 95.8404C95.4202 95.9799 95.5228 96.102 95.4073 96.3175C95.2035 96.6999 95.3859 97.6777 95.8805 97.8683C95.9916 97.9119 96.1199 97.9157 96.264 97.8609C97.0407 97.5706 97.0649 97.9406 97.6593 98.6269C98.2536 99.3158 98.8608 98.9458 99.0918 98.3629C99.3226 97.7811 99.8314 98.1523 99.9754 97.4635C100.011 97.2941 100.005 97.1309 99.9754 96.9802C99.8999 96.5816 99.4737 95.879 99.4737 95.879C99.4737 95.879 99.0247 95.7233 98.9877 95.7407C97.7975 95.007 96.3679 94.875 95.0168 95.0992C95.0168 95.0992 95.0168 95.0992 95.0154 95.0992C94.9441 95.4928 95.1351 95.6785 95.2876 95.8404Z" fill="#7640CC"/>
<path d="M100 94.2734L99.6526 96.4921C99.6526 96.4921 100.398 98.117 98.7647 97.9933C96.4375 97.8165 96 95.7957 96 95.7957L96.3672 94L100 94.2734Z" fill="#F99370"/>
<path d="M96.173 93L96 94.0598C97.535 95.0931 99.4576 95.017 99.7969 94.9844L100 93.3605L96.173 93Z" fill="#E57D61"/>
<path d="M102.773 93.4247C101.453 94.7319 99.324 95.1823 97.5839 94.9352C96.8604 94.8411 96.1768 94.6178 95.5965 94.2364H95.5943C93.2272 92.5114 92.3301 88.8631 93.5319 86.4643C95.2699 82.9465 100.256 83.2727 101.582 86.9461C101.838 87.4981 102.301 88.0978 102.858 88.5356C104.337 89.7174 104.452 91.6695 102.773 93.4247Z" fill="#F99370"/>
<path d="M101.656 90.7095L99.3119 90.1221C99.3119 90.1221 99.7913 91.6078 100.66 91.696C101.491 91.7819 101.656 90.7095 101.656 90.7095Z" fill="#F9F8F3"/>
<path d="M94.1384 89.8989C94.1384 89.8989 94.3213 91.4488 95.6551 93C95.5306 92.9263 95.411 92.8433 95.296 92.7551H95.2941C93.2012 90.9444 92.4075 87.1151 93.4704 84.5974C94.2525 82.4364 96.8382 81.1394 98.9209 82.6616C98.9209 82.6616 99.9846 85.9273 94.3102 88.773L94.1384 89.8989Z" fill="#E57D61"/>
<path d="M98.9196 83.9517C98.9196 83.9517 100.098 87.0151 93.4322 89.2722L91.7599 90C91.7599 90 90.2889 87.9386 91.4401 85.5092C92.5914 83.081 97.9751 82.1259 98.9196 83.9517Z" fill="#C92828"/>
<path d="M101.957 87.703C102.069 87.4503 101.956 87.1569 101.703 87.0427C101.451 86.9313 101.156 87.0454 101.043 87.2954C100.931 87.5481 101.044 87.8443 101.296 87.9557C101.548 88.0698 101.844 87.9557 101.957 87.703Z" fill="#C16256"/>
<path d="M101.018 89.9828C100.793 90.0071 100.562 90.0071 100.363 89.9734C100.285 89.9599 100.238 89.9085 100.259 89.8572C100.28 89.8073 100.361 89.7776 100.438 89.7911C100.936 89.8761 101.618 89.6952 101.701 89.5494C101.731 89.4981 101.621 89.4522 101.525 89.4224C100.674 89.1618 100.038 88.1721 100.011 88.1302C99.9804 88.0816 100.016 88.0263 100.091 88.0074C100.168 87.9871 100.251 88.0101 100.282 88.0587C100.288 88.0681 100.902 89.0228 101.651 89.2523C102.06 89.3779 102.014 89.548 101.976 89.6155C101.876 89.7897 101.459 89.9342 101.018 89.9828Z" fill="#C16256"/>
<path d="M92.0756 90.8119C92.3347 91.6225 93.1825 92.1395 93.9691 91.9667C94.7557 91.7939 95.1833 90.9973 94.9244 90.1867C94.6653 89.3775 93.8177 88.8605 93.031 89.0333C92.2443 89.2061 91.8167 90.0027 92.0756 90.8119Z" fill="#F99370"/>
<path d="M92.9084 89.1001C91.1269 88.2544 92.5948 93.1393 92.1519 89.8441C92.6075 89.9318 92.8579 90.7126 92.8605 90.7197C93.2514 91.0197 92.7555 89.6862 92.1809 89.602C92.2835 88.8878 93.1775 89.6423 92.9084 89.1001Z" fill="#C16256"/>
<path d="M73.7098 124.787C73.278 124.838 73.3341 123.716 73.0753 123.389C72.7132 124.039 72.5208 124.808 72.5166 124.81C72.4443 125.749 72.4188 126.69 72.4324 127.632C71.785 128.879 71.7977 125.275 71.7397 124.921C71.7355 124.921 71.7312 124.92 71.727 124.919C71.4647 125.864 71.2495 126.825 71.11 127.8C70.1857 128.919 71.0023 125 71.0444 124.63C71.0425 124.628 71.0407 124.627 71.0388 124.626C70.6542 125.469 70.364 126.364 70.1647 127.28C69.1413 128.317 70.2542 124.408 70.4061 124.067C70.4037 124.064 70.4014 124.061 70.3989 124.059C70.0083 124.672 69.6898 125.341 69.405 126.021C68.3245 126.838 69.7288 123.605 69.8988 123.31C69.9223 123.042 70.5855 121.527 71.3554 120.299C71.6407 119.844 73.3298 119.924 73.5027 120.433C73.6648 120.909 73.8408 122.492 73.8666 122.74C73.9891 123.216 74.1521 124.482 73.7098 124.787Z" fill="#F99370"/>
<path d="M111.399 96.1132C111.719 97.1121 110.711 97.1514 111.279 98.1643C111.847 99.1772 112.932 98.6954 113.312 100.541C113.685 102.361 115.438 101.969 115.49 101.956C115.492 101.957 115.492 101.957 115.492 101.957C115.837 101.363 116 100.838 116 100.838C112.546 99.2756 112.592 95.2422 112.592 95.2422C112.17 94.9317 111.628 94.9613 111 95.1003C111.128 95.3925 111.288 95.762 111.399 96.1132Z" fill="#7640CC"/>
<path d="M99.1034 87.9971C99.1122 87.993 99.121 87.9869 99.1295 87.9788C99.6689 87.3767 99.9741 86.3326 99.9868 86.288C100.012 86.1988 99.9996 86.0832 99.9581 86.0285C99.9166 85.9737 99.8621 86.0001 99.8362 86.0893C99.8334 86.0994 99.5427 87.0888 99.0476 87.6423C99.0042 87.691 98.9875 87.8045 99.01 87.8977C99.0283 87.9728 99.0666 88.0113 99.1034 87.9971Z" fill="#C16256"/>
<path d="M101.834 87.9957C101.926 87.9805 101.997 87.9003 102 87.8028C102.003 87.6901 101.916 87.597 101.806 87.5948C101.798 87.5926 101.008 87.5623 100.32 87.0401C100.232 86.9729 100.106 86.9924 100.04 87.0813C99.9738 87.1701 99.9915 87.298 100.08 87.3651C100.873 87.9675 101.757 87.9978 101.794 88C101.808 88 101.821 87.9978 101.834 87.9957Z" fill="#C16256"/>
<path d="M94.3484 159C94.2372 159.462 94.1215 159.923 94 160.387C94 160.387 97.4022 161.55 99.3996 160.672C99.6047 160.261 99.8052 159.854 100 159.45C100 159.45 98.2851 160.349 94.3484 159Z" fill="#D1A68F"/>
<path d="M67.8006 147.813C68.1604 147.885 68.562 147.947 69 148C69 148 67.9111 146.318 68.562 143C68.0917 143.104 67.616 143.201 67.1363 143.289C67.1363 143.289 66.5527 145.862 67.8006 147.813Z" fill="#D1A68F"/>
<path d="M92.1493 102.554C84.9004 105.609 81.7794 109.073 78.1339 115.297C76.9823 117.21 75.9068 119.183 74.9574 121.187C74.2758 122.714 71.5782 121.9 72.0565 120.318C73.3682 115.537 75.4402 110.973 78.1248 106.665C80.7538 102.695 84.7747 99.5789 89.243 97.3651C93.1251 95.5829 96.0676 100.813 92.1493 102.554Z" fill="#F99370"/>
<path d="M91.3163 103.533C88.9052 104.091 86.8635 107.033 85.3057 108.036C84.7664 108.383 84.2683 108.606 83.847 108.748C83.054 109.016 82.5359 109 82.5359 109C81.6319 106.66 78.7063 106.09 78.7063 106.09C78.2329 105.657 78.011 105.14 78.0005 104.56C77.9569 102.409 81.042 99.9028 84.7937 97.2583C89.3846 94.0213 94.1943 95.2151 94.1943 95.2151C96.3635 99.0052 93.7262 102.977 91.3163 103.533Z" fill="#9358E0"/>
<path d="M93 101C92.7901 101.336 89.5307 106.684 85 109C85.088 108.551 85.1622 108.159 85.2576 107.705C85.2576 107.705 90.1342 105.03 93 101Z" fill="#7640CC"/>
<path d="M105 105C104.489 104.996 103.983 104.982 103.485 104.958C103.375 102.668 102.042 101.05 102 101C103.598 102.328 104.531 103.971 105 105Z" fill="#7640CC"/>
<path d="M83 108.773C82.3218 109.015 81.8788 109 81.8788 109C81.1056 106.893 78.6036 106.379 78.6036 106.379C78.1988 105.99 78.0091 105.524 78 105.002C78.759 104.948 78.9397 106 79.6351 106.076C80.3305 106.15 80.6918 105.845 81.2328 106.198C81.7737 106.552 81.4902 107.355 81.9282 107.831C82.3661 108.307 82.9949 107.968 83 108.773Z" fill="#7640CC"/>
<path d="M102 117.842C89.7376 121.052 83.0512 116.57 83.0512 116.57C82.9774 116.603 82.9858 116.038 83.0608 115.053C83.5774 114.931 84.2317 114.985 84.8933 115.589C86.3448 116.918 85.6602 117.401 87.4383 117.32C89.2175 117.239 88.5377 116.313 89.6493 116.918C90.7608 117.52 90.9156 118.608 91.9656 118.285C93.0155 117.963 92.8619 117.401 93.6493 117.563C94.4367 117.722 95.0234 118.726 96.0733 118.344C97.1232 117.963 97.2561 116.962 97.9928 117.021C98.7294 117.078 99.3777 117.923 100.026 117.763C100.596 117.62 100.982 116.269 101.931 115.997C102 117.241 102 117.842 102 117.842Z" fill="#7640CC"/>
<path d="M126 84.896C126 84.896 127.363 82.7593 129.334 82.2435C131.303 81.7291 134 82.1895 134 82.1895C134 82.1895 133.234 82.8245 133.522 84.9113C133.522 84.9113 130.971 85.0569 129.609 84.9751C128.246 84.8919 126 84.896 126 84.896Z" fill="#E57D61"/>
<path d="M228.991 40.1564C228.991 40.1564 227.076 40.1159 226.023 41.9532C224.771 44.1369 226.36 45.7895 225.887 47.2573C225.412 48.7266 224.595 49.7701 225.236 51.2422C225.879 52.7129 224.816 53.6323 225.367 54.8432C225.919 56.0527 226.746 56.0123 226.711 57.6374C226.674 59.2611 228.256 60.6452 229.71 59.6825C231.168 58.7184 231.974 60.83 234.299 59.5122C236.625 58.1945 236.721 56.643 239.419 56.2057C242.119 55.7684 241.048 52.394 243.336 51.1397C245.625 49.8841 245.426 47.9068 243.512 46.5602C241.596 45.2136 240.355 44.8802 238.962 41.6328C237.393 37.9784 231.544 36.398 228.991 40.1564Z" fill="#662948"/>
<path d="M236.844 58.1746C234.903 62.7485 231.732 67.7567 226.017 69.3443C220.568 70.4908 214.951 69.9715 209.544 69.0273C207.564 68.9612 207.435 66.6075 209.469 66.6196C214.326 66.8098 219.435 66.8112 224.093 65.5433C228.215 64.2187 230.066 60.0711 231.518 56.7206C232.635 53.625 237.974 55.071 236.844 58.1746Z" fill="#E57D61"/>
<path d="M236.234 64.4167C235.955 64.99 235.632 65.5263 235.277 66.0283C234.699 66.8389 234.03 67.5562 233.293 68.1871C233.155 68.3064 233.015 68.423 232.871 68.5355C229.854 70.9137 225.871 71.941 222.557 71.9972C218.875 72.0616 213.739 71.0083 211.366 69.9358C210.633 69.6039 210.164 69.2692 210.085 68.9661C209.753 67.6851 210.501 66.4823 210.501 66.4823C210.743 66.2313 211.266 66.0283 211.961 65.8623C214.439 65.2657 219.096 65.1108 220.977 64.7432C223.39 64.2728 227.129 63.0411 229.334 58.8401C230.653 56.322 232.039 55.0808 232.937 54.491C233.539 54.096 233.956 54 233.956 54C233.956 54 235.464 55.5773 236.364 57.9116C236.434 58.0872 236.498 58.2682 236.556 58.452C237.122 60.1925 237.277 62.2813 236.234 64.4167Z" fill="#EB5648"/>
<path d="M235 65.3878C234.267 66.3913 233.394 67.2587 232.429 68C231.674 67.1836 230.22 65.3652 230.021 63.2561C229.749 60.3874 232.227 57 232.227 57L235 65.3878Z" fill="#CE3932"/>
<path d="M268.789 124.86L276 119.551C275.809 119.116 274.02 117.816 273.563 117.188C273.346 116.941 271.061 114.565 270.868 114.302L268.179 112L265 114.34L270.047 118.627C270.647 119.136 270.757 119.953 270.314 120.577C269.399 122.01 267.69 122.904 267.681 124.464C267.743 124.942 268.375 125.166 268.789 124.86Z" fill="#F99370"/>
<path d="M275.628 118.608C275.809 118.852 275.942 119.119 276 119.405L268.282 124.86C267.907 125.125 267.332 124.999 267.165 124.607C266.779 123.688 266.811 121.936 270.215 119.262C270.215 119.262 271.721 118.717 273.415 117C273.415 117 274.895 117.617 275.628 118.608Z" fill="#1D3F70"/>
<path d="M268 124.618L275.664 119C275.827 119.229 275.947 119.48 276 119.749L269.016 124.868C268.671 125.121 268.141 124.994 268 124.618Z" fill="#395B96"/>
<path d="M233 51.226L233.675 52.7813C233.675 52.7813 234.577 62.0015 236.299 62C239.349 61.9971 237.333 52.0834 237.494 51.5365C237.494 51.5365 236.938 50.502 236.749 50L233 51.226Z" fill="#F99370"/>
<path d="M231.681 124.988L240.965 125C241.126 124.567 240.671 122.603 240.763 121.878C240.768 121.572 240.883 119.902 240.919 119.598L240.29 115.005L236.197 115L237.047 121.01C237.149 121.723 236.655 122.396 235.875 122.62C234.16 123.187 232.217 122.911 231.108 124.077C230.818 124.469 231.145 124.987 231.681 124.988Z" fill="#F99370"/>
<path d="M241.974 124.25C241.932 124.514 241.84 124.769 241.672 125L231.712 124.988C231.228 124.987 230.879 124.61 231.04 124.25C231.42 123.407 232.735 122.183 237.325 122C237.325 122 238.887 122.369 241.455 122.005C241.455 122.005 242.141 123.182 241.974 124.25Z" fill="#1D3F70"/>
<path d="M231.046 124L242 124.017C241.959 124.363 241.866 124.698 241.696 125L231.713 124.985C231.222 124.985 230.87 124.474 231.046 124Z" fill="#395B96"/>
<path d="M235.804 47.3662C235.819 47.4286 235.832 47.4925 235.841 47.5563C235.735 47.5346 236.371 49.7826 237 51.3528C235.717 52.5878 233.881 52.9478 233.541 53C232.705 51.0248 232.154 49.1164 232.004 47.8683C231.861 45.7147 235.325 45.2604 235.804 47.3662Z" fill="#E57D61"/>
<path d="M236.537 44.9658C237.005 46.4403 237.289 48.1997 236.534 49.6073L236.531 49.6086C234.465 53.6548 225.549 52.3007 227.204 47.5428C227.796 46.2824 227.234 44.7062 227.62 43.5368C229.132 39.0585 235.543 41.1284 236.537 44.9658Z" fill="#F99370"/>
<path d="M230 49.8558L230.941 49C231.19 49.6736 230.61 50.2882 230 49.8558Z" fill="#F9F8F3"/>
<path d="M231.206 45.9186C230.768 45.4559 231.526 44.7741 231.953 45.2521C232.391 45.7148 231.633 46.3966 231.206 45.9186Z" fill="#C16256"/>
<path d="M228.207 45.9193C227.767 45.4538 228.524 44.775 228.95 45.2525C229.39 45.7181 228.633 46.3969 228.207 45.9193Z" fill="#C16256"/>
<path d="M230.051 49.9994C230.081 50.0048 230.96 49.1005 230.984 49.0883C231.003 49.0695 231.006 49.0345 230.988 49.0116C230.968 48.8798 230.044 49.9119 230.016 49.9038C229.981 49.9361 230.008 50.0074 230.051 49.9994Z" fill="#C16256"/>
<path d="M233.204 117.47C233.353 118.45 233.456 118.988 233.456 118.988C237.473 120.159 242.84 120.414 246.421 119.219C243.479 110.286 244.676 86.0062 246.762 83.0121C246.762 83.0121 254.075 104.47 261.416 116.462C261.727 116.968 262.037 117.457 262.349 117.925C262.349 117.925 270.698 118.01 275 111.507C275 111.507 274.544 111.036 273.824 110.182C271.663 107.619 267.119 102.397 265.32 95.2774C261.31 79.4135 256.637 72.1861 253.213 69.4148C248.477 65.5824 238.681 70.1649 235.524 75.6585C231.11 87.852 231.475 107.467 233.204 117.47Z" fill="#1D3F70"/>
<path d="M229.67 48.943C229.787 48.8819 230.067 48.7979 229.985 48.6202C229.957 48.5822 229.905 48.5808 229.874 48.6147C229.668 48.8291 229.268 48.8711 229.171 48.7707C229.136 48.7355 229.171 48.6649 229.206 48.612C229.517 48.1685 229.516 46.6005 229.269 47.0956C229.269 47.1051 229.349 48.0939 229.078 48.5035C228.801 49.0352 229.325 49.0596 229.67 48.943Z" fill="#C16256"/>
<path d="M236.54 45.1768C237.005 46.7086 237.287 48.5364 236.537 49.9986L236.534 50C236.824 48.9367 236.378 47.0255 236.378 47.0255L235.672 46.3903C229.496 47.0769 228 42.9195 228 42.9195C230.058 39.0777 235.612 41.6143 236.54 45.1768Z" fill="#E57D61"/>
<path d="M228 42.2118C228 42.2118 230.174 47.5206 238.164 46.9583L239.995 44.8725C240.222 40.011 232.702 35.9095 228 42.2118Z" fill="#662948"/>
<path d="M253.684 68.7167C249.242 71.9567 242.436 75.3916 236.037 74.9637C236.037 74.9652 235.155 74.5549 235.22 73.4031C235.369 70.758 234.251 69.3087 233.131 67.9503C231.611 66.1112 230.085 64.4406 231.671 60.1983C232.063 59.1608 232.639 57.3876 233.112 55.8636C233.372 55.021 233.638 54.2619 233.789 53.7388C234.716 57.0022 235.539 58.0588 236.181 57.6573C236.879 57.2206 237.323 55.0474 237.326 52.077C237.74 52.0169 238.153 51.992 238.562 52.0022C243.548 52.1107 248.123 57.1663 251.698 63.1262C252.028 63.6786 252.352 64.2384 252.664 64.8026C252.867 65.0722 253.074 65.355 253.264 65.6481C253.544 66.0804 253.786 66.5332 253.909 66.9919C254.065 67.5663 254.039 68.1496 253.684 68.7167Z" fill="#EB5648"/>
<path d="M262 117.488C262.32 118.011 262.639 118.517 262.961 119C262.961 119 271.566 119.087 276 112.37C276 112.37 275.53 111.883 274.788 111C274.788 111 270.905 116.669 262 117.488Z" fill="#163356"/>
<path d="M232.826 45.4303C232.745 45.4471 232.649 45.4292 232.58 45.3738C231.459 44.4829 230.406 44.4686 230.394 44.4667C230.259 44.4675 230.138 44.3764 230.131 44.269C230.122 44.1587 230.225 44.0687 230.362 44.0684C230.415 44.0694 231.629 44.0771 232.921 45.099C233.02 45.1791 233.026 45.3062 232.932 45.3803C232.903 45.4053 232.865 45.4217 232.826 45.4303Z" fill="#C16256"/>
<path d="M227.298 45.0345C227.216 45.0451 227.124 45.022 227.068 44.9708C226.997 44.9053 227.009 44.8194 227.101 44.78C227.118 44.7709 227.587 44.5649 228.828 44.2977C228.935 44.2759 229.055 44.317 229.105 44.3908C229.152 44.4642 229.105 44.5412 229 44.5634C227.818 44.8181 227.364 45.0145 227.361 45.0174C227.341 45.0261 227.32 45.0311 227.298 45.0345Z" fill="#C16256"/>
<path d="M252.723 68C252.723 68 243.505 74.4315 235.012 74.3515C235.012 74.3515 234.94 74.5639 235.149 74.9742C235.149 74.9742 243.569 75.7585 252.915 68.6708C252.915 68.6708 253.201 68.2736 252.723 68Z" fill="#CE3932"/>
<path d="M243.967 119C245.083 118.776 245.694 118.516 245.694 118.516C244.35 111.184 244.097 104.939 244.136 99.5004C244.217 88.5266 246 81.6705 246 81.6705C246 81.6705 244.834 81.0575 244.38 80C244.38 80 239.312 101.031 243.967 119Z" fill="#163356"/>
<path d="M233 117C233.149 118.162 233.248 118.801 233.248 118.801C237.199 120.187 242.48 120.492 246 119.073C245.909 118.548 245.822 118.024 245.737 117.505C245.737 117.505 239.125 119.042 233 117Z" fill="#163356"/>
<path d="M253 67C252.035 65.9178 250.008 64.0787 246.574 62.8325C241.441 60.9704 240 57 240 57L250.869 63.2009C251.188 63.7449 251.498 64.2946 251.8 64.8472C252.285 65.5063 252.801 66.2445 253 67Z" fill="#CE3932"/>
<path d="M244.342 52.4296C248.293 54.7902 252.214 57.2563 255.638 60.2147C258.168 62.609 259.996 65.4925 261.554 68.4326C261.969 69.7428 264.194 72.0179 262.146 72.9153C260.751 73.3664 260.233 71.9063 259.612 71.1143C258.712 69.856 257.749 68.6145 256.746 67.4296C255.374 65.8335 253.877 64.2495 252.14 63.0218C251.011 62.2589 249.638 61.418 248.454 60.707C246.164 59.354 243.632 57.9168 241.304 56.6111C238.207 54.8039 241.197 50.6621 244.342 52.4296Z" fill="#F99370"/>
<path d="M261.224 76.6538C261.691 76.7795 261.691 75.4994 261.973 75.1695C262.428 75.8472 262.678 76.6522 262.684 76.6554C262.79 77.6417 262.838 78.6328 262.84 79.6256C262.833 79.944 263.365 79.9783 263.4 79.6582C263.525 78.6965 263.606 77.7266 263.634 76.7567C263.64 76.7567 263.645 76.755 263.65 76.755C263.989 77.7429 264.27 78.752 264.46 79.7758C265.598 81.0069 264.541 76.7828 264.477 76.4366C264.481 76.435 264.482 76.4334 264.484 76.4334C264.971 77.3118 265.343 78.2491 265.605 79.2092C266.87 80.3261 265.438 76.159 265.247 75.8308C265.249 75.8276 265.252 75.8259 265.256 75.8227C265.744 76.4611 266.147 77.1583 266.507 77.8703C267.831 78.734 266.09 75.3785 265.89 75.0863C265.775 74.7172 265.141 73.5285 263.829 72.1324C263.419 71.6965 261.877 72.4313 261.676 72.9701C261.488 73.4746 261.436 74.2029 261.408 74.4641C261.271 74.9001 260.685 76.4366 261.224 76.6538Z" fill="#F99370"/>
<path d="M262.752 70.6399C262.752 70.6399 261.601 72.1982 260.199 71.9788C260.06 71.9579 259.612 71.7908 259.016 71.4743C258.117 71.0011 256.882 70.1906 255.848 69.0338C255.078 68.1755 254.228 67.1098 252.868 65.9754C251.471 64.8141 249.879 63.002 246.943 61.8616C242.796 60.2525 241.003 59.1286 239.522 56.3298C238.931 55.2163 237.146 54.3774 237 52.6161C237 52.6161 237.44 52.4639 238.221 52.3086C240.144 51.931 244.134 51.5503 248.693 53.4505C254.202 55.7447 262.031 64.0931 262.919 68.7099C263.063 69.4682 263.02 70.1264 262.752 70.6399Z" fill="#EB5648"/>
<path d="M238.864 55.9243C238.755 57.1689 238.741 58.0752 238.227 58.3209C237.566 58.6387 236.964 58.1017 236.725 57.8501C236.648 57.7692 236.606 57.7133 236.606 57.7133C236.606 57.7133 236.285 59.5376 235.082 58.8417C234.155 58.3062 233.668 56.6084 233.347 55.3637C233.099 54.4059 233 53.6262 233 53.6262C233.619 53.1716 234.049 53.1024 234.049 53.1024C235.011 56.576 235.863 57.7015 236.528 57.2734C237.251 56.8099 237.711 54.4957 237.714 51.3325C237.714 51.3325 238.17 51.1663 238.983 51C238.988 51 238.991 51 238.991 51C238.991 51 238.991 51.0912 238.995 51.2531C239.004 51.9857 239.018 54.172 238.864 55.9243Z" fill="#CE3932"/>
<path d="M211.394 70C210.645 69.6749 210.166 69.3461 210.087 69.049C209.748 67.7912 210.51 66.6088 210.51 66.6088C210.757 66.3629 211.291 66.1644 212 66C212 66 210.593 68.0651 211.394 70Z" fill="#CE3932"/>
<path d="M262.751 70.7598C262.751 70.7598 261.596 72.1808 260.188 71.9807C260.049 71.9616 259.598 71.8092 259 71.5207C259.164 71.3832 261.368 71.047 262.918 69C263.063 69.6914 263.02 70.2916 262.751 70.7598Z" fill="#CE3932"/>
</svg>
